<svg width="27" height="26" viewBox="0 0 27 26" fill="none" xmlns="http://www.w3.org/2000/svg">
<path d="M13.5 0C9.83644 0 9.37575 0.0160078 7.93631 0.0768372C6.49688 0.140868 5.51644 0.355372 4.6575 0.672326C3.75653 0.993792 2.94045 1.49805 2.26631 2.14984C1.57963 2.78966 1.04812 3.56371 0.70875 4.41814C0.374625 5.23133 0.146812 6.16298 0.081 7.52364C0.016875 8.89231 0 9.32772 0 12.8078C0 16.2847 0.016875 16.7201 0.081 18.0856C0.1485 19.4494 0.374625 20.3795 0.70875 21.1943C1.05469 22.0363 1.51538 22.7502 2.26631 23.4626C3.01556 24.1749 3.76819 24.6135 4.65581 24.9401C5.51644 25.257 6.49519 25.4731 7.93294 25.5356C9.37406 25.5964 9.83306 25.6124 13.5 25.6124C17.1669 25.6124 17.6243 25.5964 19.0654 25.5356C20.5014 25.4715 21.4853 25.257 22.3442 24.9401C23.2446 24.6185 24.0601 24.1142 24.7337 23.4626C25.4846 22.7502 25.9453 22.0363 26.2913 21.1943C26.6237 20.3795 26.8515 19.4494 26.919 18.0856C26.9831 16.7201 27 16.2847 27 12.8062C27 9.32772 26.9831 8.89231 26.919 7.52524C26.8515 6.16298 26.6237 5.23133 26.2913 4.41814C25.9519 3.56369 25.4204 2.78963 24.7337 2.14984C24.0598 1.49781 23.2436 0.993514 22.3425 0.672326C21.4819 0.355372 20.4998 0.139267 19.0637 0.0768372C17.6226 0.0160078 17.1653 0 13.4966 0H13.5017H13.5ZM12.2901 2.30832H13.5017C17.1062 2.30832 17.5331 2.31952 18.9557 2.38195C20.2719 2.43798 20.9874 2.64768 21.4633 2.82217C22.0928 3.05428 22.5433 3.33281 23.0158 3.78103C23.4883 4.22925 23.7803 4.65505 24.0249 5.25374C24.2106 5.70356 24.4299 6.38229 24.489 7.6309C24.5548 8.98035 24.5683 9.38535 24.5683 12.803C24.5683 16.2207 24.5548 16.6273 24.489 17.9767C24.4299 19.2253 24.2089 19.9024 24.0249 20.3539C23.8085 20.9099 23.463 21.4127 23.0141 21.825C22.5416 22.2732 22.0928 22.5501 21.4616 22.7822C20.9891 22.9583 20.2736 23.1664 18.9557 23.224C17.5331 23.2849 17.1062 23.2993 13.5017 23.2993C9.89719 23.2993 9.46856 23.2849 8.046 23.224C6.72975 23.1664 6.01594 22.9583 5.54006 22.7822C4.95365 22.5772 4.42315 22.2501 3.98756 21.825C3.53827 21.412 3.19228 20.9088 2.97506 20.3523C2.79113 19.9024 2.57006 19.2237 2.511 17.9751C2.44688 16.6257 2.43338 16.2207 2.43338 12.7998C2.43338 9.38054 2.44688 8.97715 2.511 7.62769C2.57175 6.37909 2.79113 5.70036 2.97675 5.24894C3.22144 4.65185 3.51506 4.22445 3.98756 3.77623C4.46006 3.32801 4.90894 3.05108 5.54006 2.81897C6.01594 2.64288 6.72975 2.43478 8.046 2.37715C9.29138 2.32272 9.774 2.30672 12.2901 2.30512V2.30832ZM20.7073 4.43415C20.4946 4.43415 20.2839 4.4739 20.0874 4.55113C19.8908 4.62835 19.7122 4.74155 19.5618 4.88425C19.4114 5.02695 19.292 5.19636 19.2106 5.38281C19.1292 5.56925 19.0873 5.76908 19.0873 5.97089C19.0873 6.1727 19.1292 6.37253 19.2106 6.55898C19.292 6.74542 19.4114 6.91483 19.5618 7.05753C19.7122 7.20023 19.8908 7.31343 20.0874 7.39066C20.2839 7.46789 20.4946 7.50764 20.7073 7.50764C21.137 7.50764 21.549 7.34573 21.8528 7.05753C22.1566 6.76934 22.3273 6.37846 22.3273 5.97089C22.3273 5.56332 22.1566 5.17244 21.8528 4.88425C21.549 4.59605 21.137 4.43415 20.7073 4.43415ZM13.5017 6.23022C12.5821 6.21661 11.6689 6.37667 10.8152 6.70107C9.96142 7.02548 9.18424 7.50775 8.52888 8.11981C7.87351 8.73187 7.35305 9.46149 6.99779 10.2662C6.64254 11.0709 6.45958 11.9346 6.45958 12.807C6.45958 13.6794 6.64254 14.5431 6.99779 15.3478C7.35305 16.1525 7.87351 16.8821 8.52888 17.4942C9.18424 18.1063 9.96142 18.5885 10.8152 18.9129C11.6689 19.2373 12.5821 19.3974 13.5017 19.3838C15.3217 19.3569 17.0576 18.6521 18.3346 17.4216C19.6117 16.1912 20.3275 14.5337 20.3275 12.807C20.3275 11.0803 19.6117 9.42282 18.3346 8.19237C17.0576 6.96191 15.3217 6.25715 13.5017 6.23022ZM13.5017 8.53693C14.6953 8.53693 15.84 8.98673 16.6841 9.78737C17.5281 10.588 18.0023 11.6739 18.0023 12.8062C18.0023 13.9385 17.5281 15.0244 16.6841 15.825C15.84 16.6257 14.6953 17.0755 13.5017 17.0755C12.3081 17.0755 11.1633 16.6257 10.3193 15.825C9.47529 15.0244 9.00113 13.9385 9.00113 12.8062C9.00113 11.6739 9.47529 10.588 10.3193 9.78737C11.1633 8.98673 12.3081 8.53693 13.5017 8.53693Z" fill="url(#paint0_linear_128_50)"/>
<defs>
<linearGradient id="paint0_linear_128_50" x1="6.66137e-07" y1="13.2805" x2="16.5" y2="13.2805" gradientUnits="userSpaceOnUse">
<stop stop-color="#02246F"/>
<stop offset="1" stop-color="#065B95" stop-opacity="0.96"/>
</linearGradient>
</defs>
</svg>
