<svg width="34" height="29" viewBox="0 0 34 29" fill="none" xmlns="http://www.w3.org/2000/svg">
<path d="M20.7218 1.64331C11.6389 1.80341 3.31801 1.8155 2.76855 13.1013C2.61676 16.2067 2.99623 21.8346 4.84498 24.502C5.08581 24.8483 5.27908 25.2209 5.4248 25.6197" stroke="#489782" stroke-width="2"/>
<path d="M28.5782 3.75781C29.841 5.46559 30.4512 7.23278 30.4087 9.05937C30.3439 11.9392 29.8977 14.9339 29.07 18.0433C27.1362 25.3024 21.9998 25.6347 15.5246 27.2387" stroke="#489782" stroke-width="2"/>
<path d="M19.9416 14.5665C19.942 14.5842 19.9372 14.6016 19.9278 14.6166C19.9183 14.6315 19.9047 14.6434 19.8886 14.6508C19.8725 14.6582 19.8545 14.6607 19.837 14.6581C19.8194 14.6555 19.803 14.6478 19.7898 14.636L9.18304 5.03279C9.17 5.02119 9.15389 5.01356 9.13661 5.01083C9.11934 5.0081 9.10164 5.01037 9.08564 5.01738C9.06963 5.02439 9.05599 5.03584 9.04634 5.05036C9.0367 5.06487 9.03146 5.08185 9.03125 5.09925V22.7923C9.03125 22.8163 9.04084 22.8394 9.05792 22.8564C9.075 22.8733 9.09817 22.8829 9.12232 22.8829H12.583C12.6072 22.8829 12.6304 22.8733 12.6474 22.8564C12.6645 22.8394 12.6741 22.8163 12.6741 22.7923V13.2102C12.6743 13.1928 12.6796 13.1758 12.6892 13.1613C12.6988 13.1468 12.7125 13.1353 12.7285 13.1283C12.7445 13.1213 12.7622 13.119 12.7795 13.1218C12.7967 13.1245 12.8129 13.1321 12.8259 13.1437L23.375 22.7258C23.388 22.7374 23.4041 22.745 23.4214 22.7478C23.4387 22.7505 23.4564 22.7482 23.4724 22.7412C23.4884 22.7342 23.502 22.7228 23.5117 22.7082C23.5213 22.6937 23.5266 22.6768 23.5268 22.6594V4.99956C23.5268 4.97553 23.5172 4.95247 23.5001 4.93548C23.483 4.91848 23.4599 4.90894 23.4357 4.90894H20.06C20.0358 4.90894 20.0127 4.91848 19.9956 4.93548C19.9785 4.95247 19.9689 4.97553 19.9689 4.99956L19.9416 14.5665Z" stroke="#83B4D5" stroke-width="2"/>
<path d="M20.7218 1.64322C11.6389 1.80332 3.31803 1.81541 2.76856 13.1012C2.61678 16.2067 2.99624 21.8345 4.84499 24.5019C5.08583 24.8483 5.2791 25.2208 5.42481 25.6196C2.83535 24.5049 2.00964 22.5776 1.78499 19.7501C1.51785 16.399 1.78499 13.1043 2.58642 9.86593C5.00589 0.0874892 12.2855 -0.287094 20.7218 1.64322Z" fill="#89C459"/>
<path d="M20.7218 1.64331C22.7274 1.77421 24.3707 2.00682 25.6518 2.34112C26.5928 2.58682 27.5683 3.05907 28.5782 3.75789C29.841 5.46567 30.4512 7.23286 30.4087 9.05946C30.344 11.9393 29.8977 14.934 29.07 18.0434C27.1362 25.3025 21.9998 25.6348 15.5246 27.2388C13.9582 27.3717 12.5021 27.405 11.1562 27.3385C9.13647 27.2398 7.22599 26.6669 5.4248 25.6197C5.27909 25.2209 5.08581 24.8483 4.84498 24.502C2.99623 21.8346 2.61676 16.2067 2.76855 13.1013C3.31801 1.8155 11.6389 1.80341 20.7218 1.64331ZM19.9416 14.5664C19.942 14.5841 19.9372 14.6015 19.9277 14.6165C19.9183 14.6314 19.9047 14.6433 19.8886 14.6507C19.8725 14.6581 19.8545 14.6606 19.837 14.658C19.8194 14.6554 19.803 14.6477 19.7898 14.6359L9.18301 5.03269C9.16998 5.02108 9.15386 5.01346 9.13659 5.01073C9.11932 5.00799 9.10162 5.01027 9.08561 5.01728C9.06961 5.02429 9.05597 5.03573 9.04632 5.05025C9.03668 5.06477 9.03144 5.08174 9.03123 5.09914V22.7922C9.03123 22.8162 9.04082 22.8392 9.0579 22.8562C9.07498 22.8732 9.09815 22.8828 9.1223 22.8828H12.583C12.6072 22.8828 12.6303 22.8732 12.6474 22.8562C12.6645 22.8392 12.6741 22.8162 12.6741 22.7922V13.2101C12.6743 13.1927 12.6795 13.1757 12.6892 13.1612C12.6988 13.1467 12.7125 13.1352 12.7285 13.1282C12.7445 13.1212 12.7622 13.1189 12.7794 13.1217C12.7967 13.1244 12.8128 13.132 12.8259 13.1436L23.375 22.7257C23.388 22.7373 23.4041 22.7449 23.4214 22.7477C23.4387 22.7504 23.4564 22.7481 23.4724 22.7411C23.4884 22.7341 23.502 22.7227 23.5117 22.7081C23.5213 22.6936 23.5266 22.6766 23.5268 22.6592V4.99946C23.5268 4.97542 23.5172 4.95237 23.5001 4.93537C23.483 4.91838 23.4598 4.90883 23.4357 4.90883H20.06C20.0358 4.90883 20.0127 4.91838 19.9956 4.93537C19.9785 4.95237 19.9689 4.97542 19.9689 4.99946L19.9416 14.5664Z" fill="#0669AB"/>
<path d="M28.5782 3.75781C35.6423 6.66688 30.4938 18.001 28.0227 21.9946C25.2541 26.4684 20.6459 27.8006 15.5247 27.2387C21.9998 25.6347 27.1363 25.3024 29.07 18.0433C29.8978 14.9339 30.344 11.9392 30.4088 9.05937C30.4513 7.23278 29.8411 5.46559 28.5782 3.75781Z" fill="#89C459"/>
<path d="M19.9416 14.5665L19.9689 4.99956C19.9689 4.97553 19.9785 4.95247 19.9956 4.93548C20.0127 4.91848 20.0358 4.90894 20.06 4.90894H23.4357C23.4599 4.90894 23.483 4.91848 23.5001 4.93548C23.5172 4.95247 23.5268 4.97553 23.5268 4.99956V22.6594C23.5266 22.6768 23.5213 22.6937 23.5117 22.7082C23.502 22.7228 23.4884 22.7342 23.4724 22.7412C23.4564 22.7482 23.4387 22.7505 23.4214 22.7478C23.4041 22.745 23.388 22.7374 23.375 22.7258L12.8259 13.1437C12.8129 13.1321 12.7967 13.1245 12.7795 13.1218C12.7622 13.119 12.7445 13.1213 12.7285 13.1283C12.7125 13.1353 12.6988 13.1468 12.6892 13.1613C12.6796 13.1758 12.6743 13.1928 12.6741 13.2102V22.7923C12.6741 22.8163 12.6645 22.8394 12.6474 22.8564C12.6304 22.8733 12.6072 22.8829 12.583 22.8829H9.12232C9.09817 22.8829 9.075 22.8733 9.05792 22.8564C9.04084 22.8394 9.03125 22.8163 9.03125 22.7923V5.09925C9.03146 5.08185 9.0367 5.06487 9.04634 5.05036C9.05599 5.03584 9.06963 5.02439 9.08564 5.01738C9.10164 5.01037 9.11934 5.0081 9.13661 5.01083C9.15389 5.01356 9.17 5.02119 9.18304 5.03279L19.7898 14.636C19.803 14.6478 19.8194 14.6555 19.837 14.6581C19.8545 14.6607 19.8725 14.6582 19.8886 14.6508C19.9047 14.6434 19.9183 14.6315 19.9278 14.6166C19.9372 14.6016 19.942 14.5842 19.9416 14.5665Z" fill="white"/>
</svg>
