<svg width="200" height="72" viewBox="0 0 200 72" fill="none" xmlns="http://www.w3.org/2000/svg">
<path d="M45.5244 3.93726C36.1867 4.13185 28.8816 4.59672 23.6091 5.33185C1.19218 8.46482 2.13029 34.2227 6.68403 50.1081C7.57003 53.2 9.18566 56.0821 11.5309 58.7546" stroke="#46937A" stroke-width="2"/>
<path d="M62.241 8.59448C62.0261 8.99664 62.1173 9.23016 62.5081 9.38583C62.6471 9.44205 62.76 9.5307 62.8469 9.65178C65.4093 13.3404 66.519 17.5393 66.1759 22.2485C64.9316 39.1523 62.3779 55.161 43.1922 59.0269C38.8838 59.8918 34.4821 60.7502 29.987 61.602" stroke="#46937A" stroke-width="2"/>
<path d="M45.5244 3.93723C36.1868 4.13183 28.8817 4.59669 23.6091 5.33183C1.19219 8.4648 2.1303 34.2226 6.68405 50.108C7.57004 53.1999 9.18567 56.0821 11.531 58.7545C6.10207 56.9599 2.97721 53.4291 2.15636 48.1621C0.909887 40.1707 1.27688 32.0453 3.25734 23.7859C8.80131 0.693991 25.0554 -1.08979 45.5244 3.93723Z" fill="#8CC449"/>
<path d="M45.5244 3.93726C52.3713 4.5859 57.0098 5.05293 62.241 8.59455C62.0261 8.99672 62.1173 9.23023 62.5081 9.3859C62.6471 9.44212 62.76 9.53077 62.8469 9.65185C65.4093 13.3405 66.519 17.5394 66.1759 22.2486C64.9316 39.1524 62.3778 55.161 43.1922 59.027C38.8838 59.8919 34.4821 60.7502 29.987 61.6021C26.1042 61.641 21.6156 61.907 18.0586 61.1351C15.6829 60.6205 13.5071 59.827 11.5309 58.7546C9.18566 56.0821 7.57003 53.2 6.68403 50.1081C2.13029 34.2227 1.19218 8.46482 23.6091 5.33185C28.8816 4.59672 36.1867 4.13185 45.5244 3.93726ZM26.5016 30.0129C26.5021 29.9739 26.5138 29.9356 26.5352 29.9028C26.5566 29.87 26.5869 29.844 26.6222 29.8282C26.6575 29.8123 26.6963 29.8073 26.7339 29.8136C26.7715 29.8199 26.8063 29.8373 26.8339 29.8637L50.3648 51.1913C50.5472 51.3556 50.7079 51.3362 50.8469 51.1329C51.0423 50.8475 51.0489 50.5319 50.8664 50.1859C50.7853 50.0242 50.7472 49.8411 50.7557 49.654C50.9424 46.454 51.0119 43.254 50.9642 40.054C50.8165 30.7481 50.7752 21.254 50.8404 11.5719C50.8412 11.5006 50.8279 11.4299 50.8011 11.3638C50.7743 11.2978 50.7346 11.2376 50.6843 11.187C50.634 11.1363 50.5741 11.096 50.5081 11.0686C50.4421 11.0411 50.3712 11.027 50.2997 11.027H42.9967C42.9103 11.027 42.8275 11.0612 42.7664 11.122C42.7053 11.1828 42.671 11.2653 42.671 11.3513V32.6659C42.6721 32.7053 42.6613 32.7438 42.64 32.7768C42.6187 32.8099 42.5878 32.8359 42.5511 32.8517C42.5144 32.8676 42.4736 32.8726 42.4335 32.8661C42.3935 32.8595 42.356 32.8418 42.3257 32.8151L18.8208 11.4356C18.5299 11.1719 18.3844 11.2346 18.3844 11.6237L18.3518 51.0551C18.3518 51.191 18.406 51.3213 18.5025 51.4174C18.599 51.5135 18.7299 51.5675 18.8664 51.5675H26.241C26.3309 51.5675 26.417 51.532 26.4806 51.4687C26.5441 51.4055 26.5798 51.3197 26.5798 51.2302L26.5016 30.0129Z" fill="#0062AB"/>
<path d="M62.241 8.59448C66.7427 9.75556 69.9805 15.3793 70.5733 19.4204C71.0033 22.3307 70.7101 25.5329 69.6938 29.0269C63.4723 50.4129 56.0195 65.0399 29.987 61.6021C34.4821 60.7502 38.8838 59.8918 43.1922 59.0269C62.3778 55.161 64.9316 39.1523 66.1759 22.2485C66.519 17.5393 65.4093 13.3404 62.8469 9.65178C62.76 9.5307 62.6471 9.44205 62.5081 9.38583C62.1173 9.23016 62.0261 8.99664 62.241 8.59448Z" fill="#8CC449"/>
<path d="M85.4202 22.5859C87.2704 26.8735 80.8534 27.5091 79.1596 24.0064C77.4398 20.4454 81.5896 16.8064 84.8599 18.8497C85.038 18.9578 85.1878 19.0962 85.3095 19.2648C85.6352 19.7102 85.5939 19.9394 85.1857 19.9524C84.9729 19.961 84.7796 19.9048 84.6059 19.7837C79.3811 16.1059 77.3551 27.3535 84.0586 25.2648C84.1546 25.2365 84.2433 25.1877 84.3186 25.1216C84.394 25.0555 84.4542 24.9738 84.4951 24.8821C84.734 24.3373 84.7883 23.7513 84.658 23.1243C84.6189 22.9556 84.6602 22.8108 84.7818 22.6897L84.9772 22.5016C85.1683 22.3113 85.316 22.3394 85.4202 22.5859Z" fill="#777875" fill-opacity="0.996"/>
<path d="M88.4756 23.6822C88.3837 23.6062 88.27 23.5611 88.1508 23.5532C88.0316 23.5454 87.9129 23.5752 87.8118 23.6386C87.7106 23.7019 87.6322 23.7954 87.5876 23.9057C87.543 24.0161 87.5346 24.1376 87.5635 24.2531C87.7459 24.9622 87.6699 25.6347 87.3355 26.2703C87.3083 26.3197 87.2656 26.359 87.214 26.3821C87.1624 26.4052 87.1047 26.411 87.0495 26.3985C86.9943 26.3861 86.9447 26.3561 86.9081 26.313C86.8716 26.27 86.8501 26.2163 86.8469 26.1601C86.7687 23.7687 86.7101 21.3774 86.671 18.986C86.6691 18.8806 86.7047 18.7779 86.7714 18.696C86.8382 18.6141 86.9318 18.5583 87.0358 18.5385C90.5798 17.8703 93.0619 20.7568 89.9153 23.4617C89.7286 23.6217 89.709 23.799 89.8567 23.9936L91.1792 25.7255C91.3616 25.959 91.3073 26.1082 91.0163 26.173L90.5212 26.2833C90.3856 26.3149 90.2431 26.2926 90.1239 26.2211C90.0046 26.1496 89.9181 26.0346 89.8827 25.9006C89.6569 25.0098 89.1878 24.2703 88.4756 23.6822ZM87.6612 19.6801V22.3914C87.6612 22.5222 87.7134 22.6476 87.8062 22.74C87.8991 22.8325 88.025 22.8844 88.1564 22.8844H88.4756C88.728 22.8845 88.9779 22.8384 89.2111 22.7487C89.4443 22.6591 89.6562 22.5277 89.8347 22.3621C90.0131 22.1965 90.1547 21.9998 90.2512 21.7833C90.3478 21.5669 90.3974 21.3349 90.3974 21.1006V20.9709C90.3973 20.4979 90.1947 20.0442 89.8343 19.7097C89.4739 19.3752 88.9852 19.1872 88.4756 19.1871H88.1564C88.0913 19.1871 88.0269 19.1999 87.9669 19.2246C87.9068 19.2494 87.8522 19.2857 87.8062 19.3315C87.7603 19.3773 87.7238 19.4316 87.6989 19.4914C87.674 19.5512 87.6612 19.6153 87.6612 19.6801Z" fill="#777875" fill-opacity="0.996"/>
<path d="M94.9772 25.4594C97.7785 25.6216 96.9121 20.4648 96.9121 18.7783C96.9137 18.7281 96.9292 18.6796 96.9569 18.6382C96.9846 18.5969 97.0232 18.5645 97.0684 18.5448C97.1336 18.5189 97.2161 18.4929 97.316 18.467C97.3803 18.4502 97.4475 18.4479 97.5127 18.4605C97.5779 18.4731 97.6392 18.5001 97.692 18.5395C97.7448 18.579 97.7876 18.6297 97.8173 18.688C97.847 18.7462 97.8627 18.8104 97.8632 18.8756C97.9023 20.6918 98.2476 23.8248 97.2899 25.2648C96.3453 26.6854 93.6613 26.601 92.8143 24.947C92.1564 23.6756 92.5016 20.2118 92.5212 18.7329C92.5213 18.6808 92.534 18.6295 92.5583 18.5832C92.5826 18.5369 92.6178 18.497 92.661 18.4666C92.7042 18.4363 92.7541 18.4164 92.8068 18.4085C92.8595 18.4007 92.9134 18.4052 92.9642 18.4216L93.2052 18.4994C93.392 18.56 93.4854 18.6897 93.4854 18.8886V23.8767C93.4846 24.2801 93.6386 24.6686 93.9159 24.9628C94.1931 25.257 94.5728 25.4346 94.9772 25.4594Z" fill="#777875" fill-opacity="0.996"/>
<path d="M101.101 23.6368C100.975 23.5985 100.84 23.5961 100.712 23.6299C100.584 23.6637 100.469 23.7323 100.378 23.828C100.287 23.9237 100.225 24.0428 100.198 24.1717C100.172 24.3007 100.182 24.4344 100.228 24.5579C100.397 25.025 100.36 25.5093 100.117 26.0109C100.07 26.1121 99.9893 26.194 99.8887 26.243C99.788 26.2919 99.6735 26.305 99.5643 26.2799C99.4551 26.2548 99.3579 26.1931 99.289 26.1052C99.2201 26.0172 99.1836 25.9084 99.1857 25.7968V19.0963C99.1855 18.9929 99.2163 18.8916 99.2742 18.805C99.3322 18.7185 99.4147 18.6506 99.5114 18.6098C104.899 16.3655 104.879 24.746 101.101 23.6368ZM100.169 19.8423L100.156 22.2812C100.155 22.3567 100.17 22.4316 100.198 22.5016C100.227 22.5716 100.269 22.6353 100.322 22.689C100.375 22.7427 100.439 22.7853 100.509 22.8144C100.579 22.8435 100.654 22.8585 100.73 22.8585H101.003C101.257 22.8594 101.508 22.8159 101.742 22.7303C101.976 22.6447 102.189 22.5188 102.369 22.3598C102.549 22.2008 102.691 22.0118 102.789 21.8035C102.887 21.5952 102.937 21.3718 102.938 21.146V21.0033C102.94 20.5476 102.738 20.1098 102.378 19.7862C102.017 19.4626 101.528 19.2798 101.016 19.2779H100.743C100.592 19.2779 100.447 19.3372 100.34 19.4428C100.232 19.5485 100.171 19.692 100.169 19.8423Z" fill="#777875" fill-opacity="0.996"/>
<path d="M112.906 22.2941C112.906 23.3607 112.48 24.3836 111.723 25.1378C110.965 25.892 109.938 26.3157 108.866 26.3157C107.795 26.3157 106.768 25.892 106.01 25.1378C105.253 24.3836 104.827 23.3607 104.827 22.2941C104.827 21.2275 105.253 20.2046 106.01 19.4504C106.768 18.6962 107.795 18.2725 108.866 18.2725C109.938 18.2725 110.965 18.6962 111.723 19.4504C112.48 20.2046 112.906 21.2275 112.906 22.2941ZM111.98 22.3265C111.98 21.5008 111.651 20.7088 111.065 20.1249C110.478 19.541 109.683 19.213 108.853 19.213C108.024 19.213 107.229 19.541 106.642 20.1249C106.056 20.7088 105.726 21.5008 105.726 22.3265C105.726 23.1523 106.056 23.9442 106.642 24.5281C107.229 25.112 108.024 25.44 108.853 25.44C109.683 25.44 110.478 25.112 111.065 24.5281C111.651 23.9442 111.98 23.1523 111.98 22.3265Z" fill="#777875" fill-opacity="0.996"/>
<path d="M175.694 27.386C174.786 28.4714 173.763 28.8995 172.625 28.6703C170.502 28.2379 168.452 28.3827 166.476 29.1049C166.379 29.1396 166.274 29.1464 166.173 29.1245C166.073 29.1026 165.98 29.0529 165.907 28.9811C165.833 28.9093 165.782 28.8183 165.758 28.7185C165.734 28.6188 165.739 28.5144 165.772 28.4173C166.769 25.6476 170.195 26.8541 172.339 26.9124C172.53 26.9168 172.718 26.8673 172.879 26.7697C173.561 26.3546 174.341 26.1838 175.218 26.2573C175.345 26.269 175.466 26.3147 175.569 26.3895C175.671 26.4643 175.751 26.5653 175.8 26.6816C175.849 26.7978 175.865 26.9249 175.847 27.0491C175.828 27.1733 175.775 27.2898 175.694 27.386Z" fill="#045B9B"/>
<path d="M90.4169 38.9904L90.3779 29.3709C90.3779 29.3377 90.3844 29.3048 90.3972 29.2741C90.41 29.2434 90.4287 29.2155 90.4523 29.192C90.4759 29.1685 90.5039 29.1499 90.5347 29.1372C90.5655 29.1245 90.5986 29.1179 90.6319 29.1179H94.0456C94.079 29.1179 94.112 29.1245 94.1428 29.1372C94.1737 29.1499 94.2017 29.1685 94.2253 29.192C94.2489 29.2155 94.2676 29.2434 94.2803 29.2741C94.2931 29.3048 94.2997 29.3377 94.2997 29.3709V47.7471C94.2996 47.7959 94.2853 47.8436 94.2586 47.8845C94.2319 47.9255 94.1939 47.9578 94.1491 47.9777C94.1044 47.9976 94.0548 48.0041 94.0064 47.9966C93.958 47.9891 93.9128 47.9677 93.8762 47.9352L83.2443 38.1536C83.2076 38.1185 83.1612 38.0951 83.1111 38.0865C83.0609 38.078 83.0093 38.0846 82.963 38.1056C82.9166 38.1265 82.8777 38.1609 82.8512 38.2041C82.8247 38.2474 82.8119 38.2976 82.8143 38.3482L82.9381 48.0455C82.9381 48.1126 82.9113 48.1769 82.8637 48.2244C82.8161 48.2718 82.7514 48.2985 82.684 48.2985L79.2508 48.3374C79.1834 48.3374 79.1188 48.3107 79.0712 48.2633C79.0235 48.2158 78.9967 48.1515 78.9967 48.0844L78.9642 29.5785C78.9631 29.5284 78.9769 29.4791 79.0039 29.4369C79.0309 29.3947 79.0699 29.3614 79.116 29.3412C79.162 29.3211 79.213 29.315 79.2625 29.3238C79.3121 29.3325 79.3579 29.3557 79.3941 29.3904L89.987 39.1785C90.0233 39.2131 90.0691 39.2363 90.1186 39.2451C90.1681 39.2538 90.2191 39.2477 90.2651 39.2276C90.3112 39.2074 90.3502 39.1741 90.3772 39.1319C90.4042 39.0897 90.4181 39.0404 90.4169 38.9904Z" fill="#045B9B"/>
<path d="M127.524 44.4909V48.065C127.524 48.1021 127.517 48.1389 127.502 48.1732C127.488 48.2075 127.467 48.2385 127.44 48.2645C127.413 48.2905 127.382 48.3109 127.347 48.3245C127.312 48.3382 127.275 48.3447 127.238 48.3439L114.463 48.1752C114.415 48.1746 114.369 48.1621 114.328 48.1388C114.287 48.1155 114.252 48.0822 114.227 48.0421C114.203 48.0019 114.189 47.9562 114.186 47.9092C114.184 47.8621 114.194 47.8153 114.215 47.7731L121.179 33.2887C121.199 33.2463 121.207 33.1996 121.204 33.1529C121.201 33.1062 121.186 33.0611 121.161 33.0217C121.135 32.9823 121.101 32.9499 121.059 32.9274C121.018 32.9049 120.972 32.8931 120.925 32.8931L114.332 32.9709C114.259 32.9727 114.188 32.9458 114.134 32.8961C114.081 32.8464 114.049 32.7778 114.046 32.705L113.909 29.4617C113.907 29.424 113.913 29.3863 113.926 29.351C113.94 29.3156 113.96 29.2833 113.986 29.256C114.012 29.2288 114.044 29.207 114.079 29.1922C114.113 29.1774 114.151 29.1698 114.189 29.1698L127.081 29.1633C127.129 29.164 127.175 29.1765 127.216 29.1998C127.257 29.2231 127.292 29.2563 127.317 29.2965C127.341 29.3366 127.355 29.3823 127.358 29.4294C127.36 29.4764 127.35 29.5233 127.329 29.5655L120.365 43.9914C120.345 44.0339 120.337 44.0806 120.34 44.1273C120.343 44.1739 120.358 44.219 120.383 44.2584C120.408 44.2978 120.443 44.3303 120.485 44.3528C120.526 44.3752 120.572 44.3871 120.619 44.3871L127.238 44.212C127.275 44.2111 127.312 44.2177 127.347 44.2313C127.382 44.245 127.413 44.2654 127.44 44.2913C127.467 44.3173 127.488 44.3484 127.502 44.3826C127.517 44.4169 127.524 44.4537 127.524 44.4909Z" fill="#045B9B"/>
<path d="M151.479 41.6886C151.445 41.6322 151.393 41.5881 151.332 41.5633C151.27 41.5385 151.203 41.5342 151.139 41.5513C151.076 41.5684 151.021 41.6057 150.982 41.6576C150.943 41.7094 150.923 41.7728 150.925 41.8378L150.984 47.7664C150.985 47.8377 150.971 47.9084 150.944 47.9744C150.918 48.0405 150.878 48.1006 150.828 48.1513C150.777 48.202 150.717 48.2422 150.651 48.2697C150.585 48.2972 150.515 48.3113 150.443 48.3113H147.616C147.355 48.3113 147.223 48.1816 147.218 47.9221C147.045 41.7859 147.005 35.6475 147.101 29.507C147.101 29.2994 147.207 29.1934 147.42 29.1891C151.564 29.1826 156.651 28.2097 159.362 32.0432C161.883 35.6107 160.248 39.9243 156.56 41.9351C156.36 42.0432 156.328 42.1902 156.463 42.3761L160.345 47.8248C160.61 48.1967 160.512 48.3761 160.052 48.3632L156.176 48.2334C155.933 48.2248 155.739 48.1232 155.596 47.9286C154.115 45.9221 152.743 43.8421 151.479 41.6886ZM150.938 33.3989L150.951 38.2767C150.952 38.3406 150.965 38.4037 150.991 38.4624C151.016 38.5211 151.053 38.5742 151.099 38.6188C151.145 38.6634 151.199 38.6985 151.259 38.7222C151.318 38.7458 151.382 38.7575 151.446 38.7567L153.042 38.7502C154.006 38.7462 154.929 38.4454 155.608 37.9139C156.287 37.3823 156.667 36.6636 156.664 35.9156V35.708C156.663 35.3373 156.568 34.9706 156.384 34.6288C156.199 34.2869 155.93 33.9767 155.592 33.7159C155.253 33.4551 154.851 33.2487 154.409 33.1086C153.967 32.9685 153.494 32.8974 153.016 32.8994L151.42 32.9059C151.356 32.9067 151.293 32.9201 151.234 32.9454C151.175 32.9706 151.121 33.0072 151.077 33.0529C151.032 33.0987 150.997 33.1528 150.973 33.2122C150.949 33.2715 150.937 33.335 150.938 33.3989Z" fill="#045B9B"/>
<path d="M199.101 38.666C199.101 41.1949 198.092 43.6202 196.296 45.4084C194.5 47.1965 192.064 48.2011 189.524 48.2011C186.985 48.2011 184.549 47.1965 182.753 45.4084C180.957 43.6202 179.948 41.1949 179.948 38.666C179.948 36.1371 180.957 33.7118 182.753 31.9236C184.549 30.1355 186.985 29.1309 189.524 29.1309C192.064 29.1309 194.5 30.1355 196.296 31.9236C198.092 33.7118 199.101 36.1371 199.101 38.666ZM195.231 38.653C195.231 37.1477 194.631 35.7041 193.562 34.6397C192.493 33.5753 191.043 32.9773 189.531 32.9773C188.019 32.9773 186.569 33.5753 185.5 34.6397C184.431 35.7041 183.831 37.1477 183.831 38.653C183.831 40.1583 184.431 41.6019 185.5 42.6663C186.569 43.7307 188.019 44.3287 189.531 44.3287C191.043 44.3287 192.493 43.7307 193.562 42.6663C194.631 41.6019 195.231 40.1583 195.231 38.653Z" fill="#045B9B"/>
<path d="M107.857 45.4055H101.635C101.58 45.4048 101.526 45.4205 101.479 45.4505C101.433 45.4805 101.396 45.5235 101.375 45.5741L100.28 48.1557C100.258 48.2063 100.222 48.2493 100.175 48.2793C100.129 48.3093 100.075 48.325 100.02 48.3244H96.4169C96.37 48.3243 96.3238 48.3125 96.2826 48.29C96.2414 48.2675 96.2066 48.2351 96.1813 48.1957C96.156 48.1563 96.141 48.1112 96.1378 48.0645C96.1346 48.0179 96.1432 47.9712 96.1629 47.9287L104.43 29.533C104.452 29.4848 104.488 29.444 104.533 29.4154C104.578 29.3868 104.631 29.3716 104.684 29.3716C104.737 29.3716 104.79 29.3868 104.835 29.4154C104.88 29.444 104.916 29.4848 104.938 29.533L113.225 47.8573C113.244 47.8993 113.253 47.9455 113.25 47.9916C113.247 48.0377 113.233 48.0824 113.208 48.1217C113.184 48.1609 113.15 48.1934 113.109 48.2164C113.069 48.2393 113.024 48.2519 112.977 48.253L109.368 48.3114C109.31 48.3123 109.253 48.2954 109.206 48.2629C109.158 48.2303 109.121 48.1838 109.101 48.1298L108.117 45.5871C108.097 45.5341 108.062 45.4883 108.015 45.4559C107.969 45.4234 107.913 45.4058 107.857 45.4055ZM103.336 41.1892C103.319 41.2226 103.311 41.2596 103.313 41.2967C103.315 41.3339 103.326 41.37 103.345 41.4017C103.365 41.4334 103.392 41.4597 103.425 41.4781C103.457 41.4966 103.494 41.5065 103.531 41.5071L105.883 41.5265C105.92 41.5266 105.956 41.5173 105.989 41.4997C106.021 41.4821 106.049 41.4566 106.069 41.4256C106.089 41.3947 106.101 41.3592 106.104 41.3224C106.106 41.2857 106.1 41.2488 106.085 41.2152L104.932 38.7698C104.914 38.7325 104.886 38.701 104.851 38.6786C104.817 38.6563 104.776 38.6441 104.735 38.6434C104.694 38.6427 104.653 38.6536 104.617 38.6748C104.582 38.696 104.553 38.7266 104.534 38.7633L103.336 41.1892Z" fill="#045B9B"/>
<path d="M140.736 45.4054H134.586C134.528 45.4045 134.472 45.4214 134.424 45.454C134.376 45.4865 134.339 45.533 134.319 45.587L133.342 48.1687C133.321 48.2215 133.284 48.2666 133.236 48.2979C133.188 48.3292 133.132 48.3452 133.075 48.3438L129.433 48.2724C129.388 48.2709 129.343 48.2582 129.304 48.2357C129.264 48.2131 129.231 48.1813 129.206 48.1429C129.182 48.1046 129.167 48.0609 129.164 48.0156C129.16 47.9704 129.168 47.9249 129.186 47.8832L137.492 29.5459C137.515 29.498 137.551 29.4576 137.597 29.4296C137.642 29.4016 137.695 29.387 137.748 29.3877C137.801 29.3884 137.854 29.4043 137.898 29.4335C137.943 29.4626 137.978 29.5039 138 29.5524L146.215 47.9351C146.233 47.9773 146.241 48.0233 146.237 48.0691C146.233 48.1148 146.218 48.1589 146.193 48.1974C146.167 48.2359 146.133 48.2677 146.093 48.2898C146.052 48.3119 146.007 48.3238 145.961 48.3243H142.417C142.363 48.3243 142.311 48.309 142.266 48.2802C142.221 48.2515 142.185 48.2105 142.163 48.1622L140.99 45.5676C140.968 45.5192 140.932 45.4782 140.887 45.4495C140.842 45.4208 140.79 45.4055 140.736 45.4054ZM136.352 41.2022C136.335 41.2355 136.328 41.2725 136.329 41.3097C136.331 41.3468 136.342 41.3829 136.362 41.4146C136.381 41.4464 136.408 41.4727 136.441 41.4911C136.473 41.5095 136.51 41.5194 136.547 41.52L138.853 41.5719C138.89 41.5725 138.926 41.564 138.959 41.5472C138.992 41.5304 139.02 41.5057 139.04 41.4755C139.061 41.4453 139.074 41.4104 139.078 41.374C139.081 41.3376 139.076 41.3008 139.062 41.267L137.974 38.7049C137.957 38.6659 137.929 38.6325 137.894 38.6089C137.858 38.5852 137.817 38.5723 137.774 38.5716C137.731 38.5709 137.689 38.5825 137.653 38.605C137.617 38.6275 137.588 38.6599 137.57 38.6984L136.352 41.2022Z" fill="#045B9B"/>
<path d="M170.267 29.6887C170.281 29.6563 170.302 29.6272 170.33 29.6037C170.357 29.5801 170.389 29.5627 170.423 29.5525C170.767 29.4444 171.014 29.5633 171.166 29.9093C173.776 35.9158 176.406 41.9136 179.055 47.9028C179.181 48.1882 179.088 48.3287 178.775 48.3244L175.485 48.2725C175.246 48.2682 175.075 48.1579 174.971 47.9417L173.98 45.7947C173.924 45.6728 173.834 45.5699 173.722 45.4985C173.61 45.4271 173.48 45.3903 173.349 45.3925L167.648 45.4379C167.322 45.4379 167.121 45.5958 167.042 45.9114C166.434 48.3114 164.84 49.0487 162.261 48.1233C162.096 48.0628 162.048 47.9547 162.117 47.799L170.267 29.6887ZM169.277 41.066C169.254 41.1148 169.244 41.1684 169.247 41.222C169.251 41.2756 169.267 41.3276 169.296 41.3732C169.324 41.4189 169.363 41.4568 169.41 41.4836C169.457 41.5103 169.51 41.5251 169.563 41.5266L171.531 41.585C171.585 41.5864 171.638 41.5746 171.686 41.5507C171.734 41.5268 171.775 41.4914 171.806 41.4478C171.837 41.4041 171.856 41.3536 171.863 41.3005C171.87 41.2475 171.863 41.1937 171.844 41.1439L170.925 38.8477C170.901 38.7886 170.861 38.7378 170.808 38.7015C170.756 38.6653 170.694 38.6452 170.63 38.6438C170.566 38.6425 170.503 38.6598 170.449 38.6937C170.395 38.7277 170.352 38.7767 170.326 38.8347L169.277 41.066Z" fill="#045B9B"/>
</svg>
