<svg width="160" height="340" viewBox="0 0 160 340" fill="none" xmlns="http://www.w3.org/2000/svg">
<g clip-path="url(#clip0_93_134)">
<path d="M115.858 35.1161C115.669 34.9948 115.449 35.1161 115.2 35.48" stroke="#2C2C30" stroke-width="2"/>
<path d="M115.2 35.4794C113.634 32.9186 111.733 32.4471 109.497 34.0649C109.118 34.3417 108.778 34.2985 108.477 33.9351C104.774 29.5099 103.11 21.9183 98.0902 19.4138C97.7462 19.2407 97.3935 19.2191 97.0322 19.3489C91.1612 21.3863 80.6709 19.0634 82.2064 29.8344C83.4193 38.3214 82.5031 47.7038 90.3612 53.3099" stroke="#7C6459" stroke-width="2"/>
<path d="M90.3613 53.3099C89.7677 53.5695 89.5398 53.855 89.6774 54.1664" stroke="#1B1C22" stroke-opacity="0.996" stroke-width="2"/>
<path d="M78.9419 27.3298C80.2452 27.8618 82.129 23.6053 82.7355 22.5802C82.9677 22.1735 82.9118 21.8102 82.5677 21.4901L81.3677 20.374C81.3044 20.3259 81.2627 20.2544 81.2519 20.1753C81.241 20.0962 81.2618 20.016 81.3097 19.9523C81.3576 19.8886 81.4287 19.8467 81.5073 19.8357C81.586 19.8248 81.6657 19.8457 81.729 19.8939C82.9333 20.6725 84.2236 20.9321 85.6 20.6725C86.2968 20.5341 86.4559 20.1621 86.0774 19.5565L84.0903 16.3771C83.9699 16.1954 84.0129 16.07 84.2193 16.0008C84.3226 15.9662 84.4301 15.9272 84.5419 15.884C84.7165 15.8263 84.9066 15.8403 85.0709 15.923C85.2353 16.0056 85.3605 16.1502 85.4193 16.3252C85.7806 17.4326 86.3914 18.3712 87.2516 19.1412C87.5527 19.4181 87.9011 19.5824 88.2968 19.6344C92.9161 20.3265 96.228 18.6308 98.2323 14.5473C98.5505 13.8898 98.7183 13.9288 98.7355 14.6641C98.7613 15.6158 98.5677 16.5285 98.1548 17.4023C98.0738 17.569 98.0579 17.7603 98.1105 17.9381C98.1631 18.116 98.2802 18.2675 98.4387 18.3626C98.7226 18.5356 99.1226 18.5832 99.6387 18.5053C103.858 22.7489 104.955 27.174 108.155 32.1702C108.273 32.3537 108.428 32.5099 108.61 32.6287C108.792 32.7474 108.997 32.8259 109.212 32.859C109.427 32.8921 109.646 32.8791 109.855 32.8207C110.064 32.7624 110.259 32.6601 110.426 32.5206C111.389 31.7247 112.387 31.6122 113.419 32.1832C113.841 32.4168 114.172 32.326 114.413 31.9107C117.948 25.8504 118.039 16.1954 110.181 13.5221C109.785 13.3837 109.449 13.1501 109.174 12.8214C102.4 4.49008 90.1032 8.34427 82.4903 13.3794C79.4581 15.3779 78.0129 17.7397 79.4968 21.2824C79.6602 21.6631 79.6645 22.0438 79.5097 22.4244C79.3548 22.8224 79.1269 23.1382 78.8258 23.3718" stroke="#382828" stroke-width="2"/>
<path d="M99.6386 18.5053L101.11 17.1298C101.617 16.6539 101.523 16.3684 100.826 16.2733C99.4709 16.0916 99.2257 17.2985 99.6386 18.5053Z" stroke="#382828" stroke-width="2"/>
<path d="M108.516 25.1107C108.912 25.699 109.424 25.8461 110.052 25.5519C110.404 25.3962 110.421 25.2058 110.103 24.9809L106.477 22.5153C106.42 22.4689 106.347 22.4447 106.274 22.4471C106.2 22.4496 106.129 22.4784 106.075 22.5285C106.02 22.5787 105.985 22.6467 105.976 22.7204C105.967 22.7941 105.985 22.8686 106.026 22.9305C106.464 23.6832 107.075 24.2239 107.858 24.5527C108.128 24.6714 108.356 24.8653 108.516 25.1107Z" stroke="#382828" stroke-width="2"/>
<path d="M106.284 25.8634L105.91 26.655C105.897 26.6813 105.889 26.71 105.887 26.7394C105.885 26.7688 105.889 26.7983 105.899 26.8261C105.908 26.8539 105.923 26.8795 105.943 26.9014C105.963 26.9233 105.986 26.941 106.013 26.9534L107.677 27.758C108.346 28.0805 109.016 28.3859 109.646 28.6567C110.276 28.9275 110.855 29.1582 111.35 29.3356C111.844 29.513 112.244 29.6335 112.526 29.6902C112.808 29.7468 112.967 29.7385 112.994 29.6657L113.058 29.5229C113.108 29.3765 112.63 28.9839 111.73 28.4301C110.829 27.8762 109.577 27.2058 108.245 26.5641L106.581 25.7596C106.554 25.7464 106.526 25.7386 106.497 25.7367C106.467 25.7348 106.438 25.7388 106.41 25.7485C106.383 25.7582 106.357 25.7733 106.336 25.7931C106.314 25.8128 106.296 25.8367 106.284 25.8634Z" stroke="#382828" stroke-width="2"/>
<path d="M115.2 35.4794C114.753 39.1216 112.791 41.7517 109.316 43.3695C108.912 43.5598 108.645 43.8713 108.516 44.3038C107.368 48.1191 106.916 55.9702 110.916 58.4748C113.084 59.8244 113.247 61.386 111.406 63.1596C107.458 66.9748 102.916 68.969 97.7806 69.142C91.716 69.3367 87.0451 66.4168 88.2451 59.6557" stroke="#A58E87" stroke-width="2"/>
<path d="M88.2451 59.6557L91.3935 56.2428C91.686 55.9227 92.0516 55.7453 92.4903 55.7107C95.0322 55.516 105.574 52.0252 105.187 48.0931C105.18 48.0103 105.148 47.9316 105.096 47.8671C105.043 47.8027 104.973 47.7555 104.894 47.7318C104.815 47.708 104.73 47.7087 104.651 47.7338C104.572 47.7589 104.503 47.8072 104.452 47.8725C101.135 51.8046 95.6387 55.5809 90.3612 53.3099" stroke="#957F79" stroke-opacity="0.996" stroke-width="2"/>
<path d="M100.219 30.3794C98.6279 29.1769 96.9032 28.887 95.0451 29.5099C94.5978 29.657 94.5204 29.9209 94.8128 30.3015C94.9032 30.4183 98.4516 30.0809 99.729 31.0153C99.8236 31.0758 99.9096 31.0672 99.987 30.9893C100.073 30.9115 100.159 30.8293 100.245 30.7428C100.269 30.7179 100.287 30.6884 100.298 30.6561C100.31 30.6239 100.314 30.5895 100.312 30.5554C100.309 30.5212 100.3 30.4878 100.284 30.4576C100.268 30.4273 100.246 30.4006 100.219 30.3794Z" stroke="#7C6459" stroke-width="2"/>
<path d="M87.6645 29.6656C86.1935 28.6015 80.7225 32.2351 87.4967 30.5351C88.1677 30.3707 88.2236 30.0809 87.6645 29.6656Z" stroke="#957F79" stroke-opacity="0.996" stroke-width="2"/>
<path d="M95.6773 34.3633C94.8945 35.4188 95.0451 36.1845 96.129 36.6603C96.2125 36.6953 96.3023 36.7126 96.3928 36.711C96.4833 36.7095 96.5725 36.6893 96.6549 36.6515C96.7372 36.6138 96.8109 36.5593 96.8714 36.4916C96.9319 36.4239 96.9778 36.3444 97.0064 36.258C97.2816 35.3929 97.1096 34.7224 96.4902 34.2466C96.367 34.1536 96.2122 34.1137 96.0597 34.1356C95.9073 34.1575 95.7697 34.2394 95.6773 34.3633Z" stroke="#7C6459" stroke-width="2"/>
<path d="M87.0322 36.1672C87.0948 36.0505 87.1261 35.9194 87.1232 35.7869C87.1203 35.6543 87.0832 35.5248 87.0156 35.411C86.9479 35.2972 86.8521 35.203 86.7374 35.1377C86.6227 35.0723 86.4931 35.038 86.3612 35.0382H85.8967C85.5698 35.0382 85.3505 35.1939 85.2386 35.5054C84.9978 36.1975 85.0967 36.7685 85.5354 37.2183C85.9397 37.6336 86.2795 37.5817 86.5548 37.0626L87.0322 36.1672Z" stroke="#7C6459" stroke-width="2"/>
<path d="M112.877 36.7771C113.028 36.8089 113.184 36.7834 113.317 36.7058C113.449 36.6281 113.548 36.5037 113.595 36.3567C113.642 36.2096 113.632 36.0505 113.569 35.91C113.505 35.7695 113.392 35.6576 113.252 35.5962C112.103 35.0511 108.323 35.6351 109.2 37.6985C109.424 38.2435 109.729 38.2911 110.116 37.8412C110.907 36.9328 111.828 36.5781 112.877 36.7771Z" stroke="#7C6459" stroke-width="2"/>
<path d="M89.871 36.9847C88.8903 38.6328 86.7742 41.5137 89.4322 43.0191C90.2236 43.4603 90.3699 43.3046 89.871 42.5519C88.8903 41.0552 89.1011 39.5888 90.5032 38.1527C90.7183 37.9277 90.7742 37.6682 90.671 37.374C90.6279 37.2616 90.5892 37.1534 90.5548 37.0496C90.5323 36.9798 90.4899 36.9181 90.4329 36.8722C90.3759 36.8263 90.3068 36.7981 90.2341 36.7912C90.1614 36.7843 90.0883 36.799 90.0237 36.8333C89.9592 36.8677 89.9061 36.9204 89.871 36.9847Z" stroke="#7C6459" stroke-width="2"/>
<path d="M110.155 39.9176C110.043 40.0992 109.978 40.2939 109.961 40.5015C109.935 41.0379 110.142 41.1504 110.581 40.8389C111.449 40.2247 111.918 39.4028 111.987 38.3733C112.003 38.2703 111.98 38.1649 111.923 38.0782C111.865 37.9914 111.777 37.9296 111.676 37.9051C111.575 37.8806 111.469 37.8951 111.379 37.9458C111.288 37.9965 111.22 38.0796 111.187 38.1786C111.058 38.4728 110.907 38.754 110.735 39.0221C110.348 39.6191 110.155 39.9176 110.155 39.9176Z" stroke="#A58E87" stroke-width="2"/>
<path d="M90.8645 47.1458C92.9677 47.8466 97.2387 47.3015 97.7806 44.771C97.8064 44.6672 97.772 44.6412 97.6774 44.6931C95.587 45.7746 93.372 46.2677 91.0322 46.1725C90.9139 46.167 90.7986 46.2046 90.7073 46.2786C90.6159 46.3526 90.5545 46.458 90.5342 46.5758C90.5139 46.6935 90.5361 46.8158 90.5967 46.9204C90.6573 47.0249 90.7523 47.1049 90.8645 47.1458Z" stroke="#A58E87" stroke-width="2"/>
<path d="M113.226 58.1634C113.114 59.1237 113.376 59.6774 114.013 59.8244" stroke="#454651" stroke-opacity="0.996" stroke-width="2"/>
<path d="M114.013 59.8244C110.77 71.3567 107.892 82.8761 105.381 94.3825C100.155 118.377 105.084 141.671 104.026 165.458C104.021 165.61 104.054 165.76 104.12 165.897C104.187 166.033 104.285 166.151 104.407 166.241C104.529 166.33 104.671 166.388 104.82 166.41C104.97 166.432 105.122 166.417 105.264 166.366L105.806 166.172" stroke="#787EA0" stroke-width="2"/>
<path d="M105.806 166.172C105.746 166.302 106 166.427 106.568 166.549" stroke="#454651" stroke-opacity="0.996" stroke-width="2"/>
<path d="M106.568 166.548L105.29 167.353C105.046 167.504 104.765 167.587 104.478 167.591C104.19 167.596 103.907 167.523 103.657 167.38C103.408 167.236 103.201 167.028 103.06 166.777C102.918 166.525 102.846 166.24 102.852 165.951L103.006 159.151C103.015 158.684 102.791 158.481 102.335 158.541C96.486 159.242 90.6881 158.922 84.9419 157.581C84.7417 157.536 84.5324 157.569 84.3571 157.673C84.1818 157.776 84.0539 157.943 84 158.139L83.5483 159.67" stroke="#9797A2" stroke-width="2"/>
<path d="M83.5484 159.671L82.6968 159.579" stroke="#2C2C30" stroke-width="2"/>
<path d="M82.6968 159.579C83.5097 149.743 84.1936 140.529 84.0516 130.186C83.7419 106.594 84.6667 82.9539 86.8258 59.2664" stroke="#787EA0" stroke-width="2"/>
<path d="M86.8258 59.2664L88.2452 59.6563" stroke="#454651" stroke-opacity="0.996" stroke-width="2"/>
<path d="M85.8838 105.335C86.1161 127.124 85.0064 139.465 84.2451 155.738C84.2279 156.136 84.4086 156.391 84.7871 156.504C90.5333 158.217 96.3312 158.463 102.181 157.244C102.585 157.157 102.804 156.906 102.839 156.491C103.045 153.973 103.29 151.715 103.071 149.224C101.591 132.475 101.024 120.505 101.368 113.316C102.103 97.484 106.632 81.2626 111.071 66.2092C111.092 66.1355 111.09 66.057 111.064 65.9847C111.038 65.9125 110.991 65.8504 110.928 65.8071C110.865 65.7639 110.79 65.7419 110.713 65.7442C110.637 65.7464 110.564 65.7729 110.503 65.8199C104.916 70.1282 93.3161 74.0863 88.2968 66.5855C88.2394 66.5027 88.1583 66.4396 88.0642 66.4047C87.9701 66.3698 87.8677 66.3647 87.7706 66.3902C87.6736 66.4156 87.5867 66.4704 87.5215 66.5471C87.4564 66.6238 87.4162 66.7187 87.4064 66.8191C86.4774 79.6534 85.729 91.9817 85.8838 105.335Z" stroke="#A59789" stroke-width="2"/>
<path d="M86.8257 59.2664C76.516 62.6015 66.4515 63.6137 63.9096 76.0588C63.187 79.5756 56.8515 102.104 57.5225 103.427C59.4666 107.217 61.1784 111.149 62.658 115.224C62.8816 115.847 62.6752 116.063 62.0386 115.873C60.3354 115.353 50.2709 89.0748 48.916 85.6748C48.8612 85.5371 48.7696 85.4174 48.6513 85.3288C48.533 85.2402 48.3927 85.1862 48.2459 85.1728C48.099 85.1594 47.9513 85.187 47.8191 85.2527C47.6869 85.3184 47.5753 85.4196 47.4967 85.545C44.8988 89.7756 41.3375 92.8814 36.8128 94.8626C36.3741 95.0529 36.2451 95.3687 36.4257 95.8099C39.1956 102.636 41.9784 109.436 44.7741 116.21C47.2085 122.127 48.559 125.298 48.8257 125.722C50.7612 128.741 53.5397 130.826 57.1612 131.977C57.5913 132.116 58.0128 132.111 58.4257 131.964C68.7225 128.486 73.1354 118.533 72.4515 108.281C71.8322 98.773 71.2429 89.2738 70.6838 79.7832C70.6745 79.6666 70.7019 79.55 70.7621 79.45C70.8222 79.3499 70.9121 79.2713 71.0191 79.2254C71.1261 79.1795 71.2447 79.1686 71.3581 79.1942C71.4716 79.2197 71.5743 79.2805 71.6515 79.3679C73.3418 81.1458 74.0902 114.25 74.1676 118.909C74.2365 122.871 73.8322 126.817 72.9547 130.744C70.8988 139.958 68.2967 150.984 65.1483 163.823C64.9849 164.506 65.1999 164.948 65.7935 165.147" stroke="#686F92" stroke-opacity="0.996" stroke-width="2"/>
<path d="M65.7935 165.147C65.8709 165.337 65.6172 165.48 65.0322 165.575" stroke="#1B1C22" stroke-opacity="0.996" stroke-width="2"/>
<path d="M19.7161 79.9529C20.1376 79.9179 20.5591 79.8873 20.9806 79.8611" stroke="#1B1C22" stroke-opacity="0.996" stroke-width="2"/>
<path d="M20.9806 79.8611L15.7935 70.6214C15.6888 70.4383 15.5357 70.288 15.3512 70.1872C15.1667 70.0864 14.958 70.0391 14.7483 70.0504C14.4817 70.0677 14.2537 70.1542 14.0645 70.3099" stroke="#95887B" stroke-opacity="0.996" stroke-width="2"/>
<path d="M14.0645 70.3099C13.4365 70.1283 14.0516 69.7995 15.9096 69.3237" stroke="#1B1C22" stroke-opacity="0.996" stroke-width="2"/>
<path d="M16.1032 69.1809C15.8623 69.3972 15.9268 69.6221 16.2967 69.8557C16.6408 70.072 16.9204 70.3532 17.1354 70.6992L22.4903 79.1603C22.6216 79.3728 22.8017 79.55 23.0153 79.6766C23.2288 79.8032 23.4693 79.8754 23.7161 79.887L31.7806 80.2893C32.3403 80.3156 32.8794 80.5103 33.3279 80.8481C33.7765 81.1858 34.114 81.6512 34.2967 82.184L37.7548 92.3191C37.901 92.7517 38.172 92.8641 38.5677 92.6565C41.4838 91.1165 43.7978 88.9321 45.5096 86.103C45.8193 85.6013 45.858 85.0822 45.6258 84.5458L40.787 73.0611C40.7014 72.8512 40.5752 72.6606 40.4157 72.5002C40.2562 72.3398 40.0667 72.2128 39.858 72.1267L28.1548 67.2084C27.9843 67.1373 27.793 67.1306 27.6167 67.1896C27.4405 67.2485 27.2916 67.3691 27.1981 67.5286C27.1045 67.6881 27.0727 67.8755 27.1087 68.0556C27.1447 68.2356 27.246 68.3958 27.3935 68.5061L31.1999 71.5038C31.7333 71.9277 31.6731 72.2132 31.0193 72.3603C29.7204 72.6631 28.4086 72.5896 27.0838 72.1397C26.6365 71.984 26.2107 72.0272 25.8064 72.2695C24.9806 72.7626 24.1333 72.6415 23.2645 71.9061C23.1546 71.8224 23.0278 71.7907 22.9063 71.8166C22.7847 71.8426 22.6761 71.9245 22.5993 72.048C22.5225 72.1716 22.4825 72.329 22.4861 72.4927C22.4898 72.6565 22.5369 72.8163 22.6193 72.9443C23.6516 74.3891 24.615 75.8901 25.5096 77.4473C25.551 77.5203 25.565 77.6058 25.5489 77.6882C25.5329 77.7707 25.4879 77.8446 25.4223 77.8965C25.3566 77.9484 25.2746 77.9748 25.1911 77.971C25.1077 77.9671 25.0284 77.9333 24.9677 77.8756C22.9376 75.929 21.3634 73.6796 20.2451 71.1275C20.0817 70.7295 19.8021 70.4397 19.4064 70.258L16.7741 69.0252" stroke="#957F79" stroke-opacity="0.996" stroke-width="2"/>
<path d="M132.658 187.493L130.826 192.827" stroke="#1B1C22" stroke-opacity="0.996" stroke-width="2"/>
<path d="M130.826 192.827C132.619 182.03 134.335 173.802 133.135 167.444C133.106 167.286 133.026 167.142 132.907 167.035C132.788 166.928 132.637 166.864 132.478 166.852C132.319 166.84 132.161 166.881 132.027 166.97C131.894 167.058 131.794 167.188 131.742 167.34C131.165 169.079 130.047 170.229 128.387 170.792C127.922 170.956 127.626 171.276 127.497 171.752L126.761 174.49C126.738 174.578 126.734 174.67 126.748 174.759C126.762 174.849 126.794 174.935 126.842 175.012C126.891 175.088 126.954 175.154 127.029 175.205C127.104 175.256 127.189 175.291 127.277 175.308L130.451 175.905C130.578 175.928 130.679 175.998 130.732 176.099C130.784 176.2 130.783 176.323 130.73 176.442C130.704 176.5 130.666 176.556 130.617 176.606C130.569 176.656 130.512 176.699 130.449 176.732C130.321 176.799 130.178 176.824 130.052 176.8C121.295 175.321 115.419 170.389 112.426 162.006C112.211 161.409 111.879 161.331 111.432 161.773L106.568 166.548" stroke="#878895" stroke-opacity="0.996" stroke-width="2"/>
<path d="M105.806 166.172C107.923 163.308 110.404 160.977 113.252 159.177C113.63 158.944 113.91 158.623 114.09 158.217C117.144 151.304 120.8 144.729 125.058 138.492C125.092 138.444 125.115 138.389 125.126 138.331C125.136 138.273 125.134 138.214 125.119 138.157C125.104 138.1 125.077 138.047 125.04 138.002C125.003 137.956 124.956 137.92 124.903 137.895C124.658 137.778 113.226 148.354 110.813 146.226C110.409 145.863 110.46 145.586 110.968 145.395C115.596 143.7 119.656 141.091 123.148 137.57C123.475 137.241 123.854 136.999 124.284 136.843C125.815 136.281 126.297 135.139 125.729 133.418C125.574 132.968 125.626 132.539 125.884 132.133L128 128.746" stroke="#686F92" stroke-opacity="0.996" stroke-width="2"/>
<path d="M128 128.746C128.163 128.512 128.512 128.287 129.045 128.071" stroke="#1B1C22" stroke-opacity="0.996" stroke-width="2"/>
<path d="M129.045 128.071C127.97 130.545 127.402 133.063 127.342 135.624C127.325 136.1 127.204 136.545 126.981 136.96L114.245 160.202C114.012 160.625 113.918 161.111 113.976 161.591C114.034 162.071 114.241 162.521 114.568 162.876C118.215 166.838 122.718 169.083 128.077 169.611C128.507 169.654 128.852 169.498 129.11 169.144C139.312 154.652 145.673 145.235 148.193 140.892C152.193 134.002 149.832 128.798 148.49 121.686C145.419 105.24 143.553 94.4171 142.89 89.2176C141.845 81.0031 140 71.6206 131.755 67.6237C126.12 64.8898 120.206 62.2901 114.013 59.8244" stroke="#686F92" stroke-opacity="0.996" stroke-width="2"/>
<path d="M138.361 157.905L133.781 164.718C133.54 165.073 133.501 165.449 133.664 165.847C134.817 168.711 135.178 171.7 134.748 174.815C134.679 175.36 134.916 175.606 135.458 175.554C137.355 175.385 143.6 172.816 142.89 170.013C141.858 165.895 140.692 161.907 139.393 158.048C139.144 157.304 138.8 157.256 138.361 157.905Z" stroke="#686F92" stroke-opacity="0.996" stroke-width="2"/>
<path d="M124.864 169.935C121.398 169.122 118.344 167.53 115.703 165.16C115.604 165.059 115.471 165 115.331 164.994C115.19 164.989 115.053 165.037 114.947 165.129C114.84 165.221 114.772 165.351 114.757 165.491C114.742 165.632 114.78 165.773 114.864 165.886C117.29 169.589 120.507 172.405 124.516 174.334C124.903 174.525 125.247 174.464 125.548 174.153C126.107 173.59 126.413 172.907 126.464 172.102C126.542 170.926 126.009 170.203 124.864 169.935Z" stroke="#957F79" stroke-opacity="0.996" stroke-width="2"/>
<path d="M82.6967 159.579C82.7053 161.266 82.43 162.612 81.8709 163.615C80.0128 166.963 68.9935 165.756 65.7935 165.147" stroke="#4F5472" stroke-width="2"/>
<path d="M129.045 128.071L125.161 109.319" stroke="#4F5472" stroke-width="2"/>
<path d="M125.161 109.319L122.877 92.929C122.826 92.5483 122.611 92.3926 122.232 92.4618C120.516 92.7992 123.252 107.463 123.652 109.345" stroke="#787EA0" stroke-width="2"/>
<path d="M123.652 109.345C123.587 116.197 121.806 123.464 128 128.746" stroke="#4F5472" stroke-width="2"/>
<path d="M125.187 81.4572C126.572 77.9275 128.606 74.8216 131.29 72.1397C131.321 72.107 131.339 72.0646 131.342 72.0197C131.346 71.9749 131.333 71.9303 131.307 71.8936C131.281 71.8569 131.244 71.8304 131.201 71.8185C131.158 71.8065 131.112 71.81 131.071 71.8282C127.105 73.7142 124.955 76.8806 124.619 81.3275C124.617 81.3965 124.639 81.4641 124.681 81.5187C124.724 81.5733 124.783 81.6115 124.85 81.6268C124.917 81.6421 124.987 81.6336 125.049 81.6027C125.11 81.5717 125.159 81.5203 125.187 81.4572Z" stroke="#787EA0" stroke-width="2"/>
<path d="M131.277 130.225L131.006 131.406C130.999 131.433 130.997 131.462 131 131.49C131.004 131.518 131.013 131.545 131.028 131.57C131.042 131.594 131.062 131.615 131.085 131.631C131.108 131.648 131.134 131.66 131.161 131.666L141.974 134.105C142.164 134.148 142.363 134.113 142.527 134.009C142.692 133.904 142.808 133.738 142.852 133.547L142.89 133.405C142.913 133.309 142.917 133.21 142.901 133.113C142.886 133.016 142.851 132.923 142.799 132.84C142.748 132.757 142.68 132.684 142.6 132.628C142.521 132.571 142.431 132.531 142.335 132.509L131.522 130.069C131.469 130.058 131.414 130.068 131.368 130.097C131.322 130.126 131.29 130.172 131.277 130.225Z" stroke="#787EA0" stroke-width="2"/>
<path d="M101.084 150.664C94.9849 148.752 90.1935 145.231 86.7096 140.101C86.6496 140.004 86.5556 139.933 86.4462 139.903C86.3368 139.873 86.2201 139.885 86.1192 139.937C86.0184 139.99 85.9409 140.078 85.902 140.186C85.8632 140.293 85.8659 140.411 85.9096 140.516C88.1032 146.304 95.8838 150.508 101.226 152.364C101.331 152.4 101.445 152.405 101.553 152.379C101.661 152.353 101.76 152.297 101.838 152.217C101.916 152.137 101.97 152.037 101.994 151.927C102.018 151.818 102.011 151.704 101.974 151.598C101.802 151.105 101.505 150.794 101.084 150.664Z" stroke="#A59789" stroke-width="2"/>
<path d="M30.0773 75.6695C34.6838 73.9954 35.1354 75.2023 38.8515 77.3046C38.9516 77.364 39.0698 77.3847 39.1839 77.3628C39.298 77.3408 39.4003 77.2778 39.4715 77.1855C39.5427 77.0931 39.578 76.9779 39.5708 76.8612C39.5636 76.7446 39.5143 76.6346 39.4322 76.5519C36.6451 73.6883 33.4365 73.1908 29.8064 75.0595C29.738 75.1028 29.6875 75.1694 29.6641 75.2472C29.6407 75.3249 29.6459 75.4085 29.6788 75.4827C29.7118 75.5569 29.7702 75.6166 29.8434 75.6509C29.9166 75.6852 29.9997 75.6918 30.0773 75.6695Z" stroke="#A58E87" stroke-width="2"/>
<path d="M14.0645 70.3099C15.1139 73.9608 17.4193 77.1445 20.9806 79.8611" stroke="#7B6E5B" stroke-width="2"/>
<path d="M125.161 109.319L123.652 109.346" stroke="#2C2C30" stroke-width="2"/>
<path d="M130.826 192.827C128.361 207.374 123.6 221.519 121.768 235.937C120.555 245.522 119.363 255.13 118.193 264.759" stroke="#6E6E74" stroke-width="2"/>
<path d="M118.194 264.759C116.774 265.498 116.052 263.474 115.523 262.864C107.591 253.685 99.7763 244.441 92.0774 235.132" stroke="#9797A2" stroke-width="2"/>
<path d="M93.3547 234.146C93.8881 234.449 94.301 235.011 94.5934 235.833C94.7397 236.239 94.83 236.231 94.8644 235.807C95.458 228.635 95.9397 221.48 96.3096 214.343C96.6322 208.036 98.2322 198.602 97.716 190.517" stroke="#9797A2" stroke-width="2"/>
<path d="M97.7161 190.517L98.0645 183.548C98.0724 183.357 98.0315 183.167 97.9457 182.997C97.8598 182.827 97.7319 182.681 97.5742 182.575C95.0624 180.845 92.4731 179.339 89.8064 178.059C89.7686 178.038 89.7228 178.032 89.6791 178.042C89.6354 178.053 89.5974 178.079 89.5734 178.115C89.5495 178.151 89.5415 178.194 89.5514 178.235C89.5612 178.275 89.588 178.31 89.6258 178.331C92.9462 180.875 94.8387 184.66 95.3032 189.686" stroke="#6E6E74" stroke-width="2"/>
<path d="M95.3032 189.686C92.7613 197.81 83.0322 225.023 87.7548 231.278C91.5656 236.33 101.523 248.256 117.626 267.056" stroke="#9797A2" stroke-width="2"/>
<path d="M117.626 267.056C121.411 271.494 125.127 276.001 128.774 280.578C132.219 284.873 132.194 287.624 128.903 291.842C124.929 296.955 120.267 300.286 114.916 301.834C114.443 301.973 114.03 301.869 113.677 301.523C100.968 288.715 88.6065 275.608 76.1032 262.618C69.4065 255.675 51.8581 238.013 54.1548 228.708C58.929 209.312 63.6516 189.894 68.3226 170.454C68.4344 169.987 68.7183 169.684 69.1742 169.546L81.0839 165.834C81.5484 165.687 81.9183 165.41 82.1936 165.004C83.1742 163.533 83.6258 161.755 83.5484 159.67" stroke="#6E6E74" stroke-width="2"/>
<path d="M117.626 267.056C118.262 266.13 118.452 265.364 118.193 264.759" stroke="#2C2C30" stroke-width="2"/>
<path d="M135.768 293.724C135.647 293.854 135.523 293.984 135.394 294.114" stroke="#2C2C30" stroke-width="2"/>
<path d="M135.393 294.113L135.187 296.176" stroke="#6E6E74" stroke-width="2"/>
<path d="M135.187 296.176C135.058 296.211 134.933 296.246 134.813 296.281" stroke="#2C2C30" stroke-width="2"/>
<path d="M134.813 296.28C133.944 294.576 132.731 293.161 131.174 292.037C130.821 291.777 130.482 291.79 130.155 292.076L120.374 300.64" stroke="#7C6459" stroke-width="2"/>
<path d="M120.374 300.64C120.546 300.71 120.499 300.93 120.232 301.302" stroke="#2C2C30" stroke-width="2"/>
<path d="M120.232 301.302C115.57 301.363 113.557 303.106 114.193 306.532" stroke="#818181" stroke-width="2"/>
<path d="M114.193 306.532L113.006 306.572" stroke="#2C2C30" stroke-width="2"/>
<path d="M113.006 306.571L113.419 303.456C113.471 303.05 113.359 302.695 113.084 302.392C111.501 300.671 109.892 298.975 108.258 297.305C104 292.945 97.9483 289.882 92.9419 286.379" stroke="#6E6E74" stroke-width="2"/>
<path d="M92.9419 286.379L92.4773 286.08C92.1419 285.872 91.8623 285.937 91.6386 286.275L91.2773 286.82" stroke="#2C2C30" stroke-width="2"/>
<path d="M97.7161 190.517C96.5118 189.669 95.7075 189.392 95.3032 189.686" stroke="#2C2C30" stroke-width="2"/>
<path d="M95.729 191.918C95.329 192.671 94.3613 196.395 94.2839 197.122C94.2587 197.392 94.3357 197.662 94.4995 197.879C94.6633 198.096 94.9017 198.243 95.1666 198.291C95.4316 198.339 95.7035 198.284 95.9275 198.136C96.1516 197.989 96.3112 197.761 96.3742 197.498C96.7699 195.785 96.8989 193.999 96.7613 192.139C96.7561 192.02 96.7118 191.906 96.6353 191.816C96.5588 191.725 96.4542 191.663 96.3373 191.638C96.2205 191.613 96.0979 191.627 95.9881 191.677C95.8783 191.728 95.7873 191.813 95.729 191.918Z" stroke="#9797A2" stroke-width="2"/>
<path d="M92.9419 286.379C92.8473 286.431 92.757 286.491 92.671 286.56C92.5425 286.661 92.4385 286.789 92.367 286.935C92.2954 287.081 92.2582 287.242 92.2581 287.404V306.234C92.2574 306.442 92.3167 306.646 92.4289 306.821C92.5411 306.996 92.7014 307.135 92.8903 307.22C96.0516 308.647 111.045 309.621 113.006 306.571" stroke="#9797A2" stroke-width="2"/>
<path d="M114.193 306.532C113.841 307.89 112.753 308.665 110.929 308.855C110.761 308.874 110.607 308.955 110.495 309.082C110.383 309.209 110.321 309.373 110.323 309.543V316.486C110.323 316.918 110.473 317.286 110.774 317.589L111.355 318.16C111.69 318.497 111.871 318.904 111.897 319.379C112.232 324.557 113.806 328.736 109.806 333.33" stroke="#AAAAAF" stroke-width="2"/>
<path d="M109.806 333.33C109.411 333.581 109.204 333.801 109.187 333.992" stroke="#2C2C30" stroke-width="2"/>
<path d="M80.8903 339.014L81.6386 338.053" stroke="#454651" stroke-opacity="0.996" stroke-width="2"/>
<path d="M81.6387 338.053C83.5483 338.988 85.3677 339.109 87.0967 338.417C87.4838 338.261 87.8752 338.235 88.2709 338.339C88.5892 338.425 88.9677 338.417 89.4064 338.313" stroke="#9797A2" stroke-width="2"/>
<path d="M89.4064 338.313C93.1483 339.961 112.529 333.265 111.342 327.321C110.723 324.233 110.538 321.754 110.787 319.886C110.797 319.814 110.786 319.74 110.754 319.675C110.723 319.61 110.673 319.556 110.61 319.519C110.548 319.483 110.476 319.466 110.404 319.472C110.332 319.477 110.263 319.503 110.206 319.548L107.445 321.598C107.067 321.875 106.649 321.983 106.193 321.923C101.148 321.313 99.9741 316.914 93.8967 317.018C93.5657 317.022 93.2405 317.105 92.9478 317.26C92.655 317.416 92.4032 317.639 92.2129 317.911C92.0227 318.184 91.8995 318.498 91.8535 318.827C91.8075 319.157 91.84 319.493 91.9483 319.808C93.8064 325.193 92.5161 328.321 91.5354 333.563C91.5059 333.715 91.5154 333.871 91.5628 334.018C91.6102 334.165 91.694 334.297 91.8064 334.403C91.9187 334.508 92.0559 334.582 92.2049 334.62C92.3539 334.657 92.5098 334.655 92.658 334.615C98.473 333.109 103.677 330.406 108.271 326.504C108.426 326.383 108.572 326.391 108.71 326.53C108.787 326.608 108.864 326.686 108.942 326.763C108.999 326.821 109.043 326.89 109.071 326.966C109.099 327.042 109.111 327.124 109.107 327.205C109.102 327.287 109.08 327.367 109.043 327.441C109.005 327.515 108.954 327.58 108.89 327.633C103.497 332.114 97.415 335.168 90.6451 336.795" stroke="#AAAAAF" stroke-width="2"/>
<path d="M90.6451 336.795C89.6644 336.483 89.0192 336.574 88.7096 337.067C87.2644 337.586 86.2192 337.227 85.5741 335.99C85.4721 335.793 85.3317 335.618 85.1611 335.475C84.9905 335.332 84.7932 335.225 84.5805 335.159C84.03 334.986 83.5913 335.185 83.2644 335.756" stroke="#9797A2" stroke-width="2"/>
<path d="M82.2967 336.25C80.8257 336.345 80.2838 336.704 80.6709 337.327" stroke="#9797A2" stroke-width="2"/>
<path d="M80.6709 337.327L78.929 337.873" stroke="#454651" stroke-opacity="0.996" stroke-width="2"/>
<path d="M93.8838 315.098C94.2021 314.422 94.5074 314.296 94.7999 314.721" stroke="#2C2C30" stroke-width="2"/>
<path d="M94.7999 314.721C94.929 316.485 96.5161 315.915 97.5096 316.239C100.013 317.035 102.232 318.354 104.168 320.197C104.486 320.5 104.864 320.655 105.303 320.664C110.245 320.69 109.097 313.28 109.019 310.114C109.002 309.655 108.766 309.443 108.31 309.478C106.49 309.595 95.5096 309.309 95.0838 310.14" stroke="#A58E87" stroke-width="2"/>
<path d="M95.0839 310.14C94.4817 310.227 94.3828 310.149 94.7871 309.906" stroke="#2C2C30" stroke-width="2"/>
<path d="M134.813 296.28C135.523 301.017 129.239 304.235 125.587 304.871C125.123 304.949 124.718 304.823 124.374 304.495L120.374 300.64" stroke="#A58E87" stroke-width="2"/>
<path d="M143.574 298.525C143.514 299.165 144.052 299.793 145.187 300.407" stroke="#2C2C30" stroke-width="2"/>
<path d="M145.187 300.407C140.559 305.087 137.204 309.954 135.123 315.006C134.254 317.117 133.234 318.627 132.064 319.535C132.02 319.57 131.984 319.615 131.958 319.665C131.933 319.716 131.918 319.772 131.916 319.83C131.913 319.888 131.923 319.945 131.944 320C131.965 320.054 131.998 320.104 132.039 320.145L132.374 320.495C132.615 320.729 132.667 321.002 132.529 321.313C131.557 323.51 130.069 325.219 128.064 326.439" stroke="#AAAAAF" stroke-width="2"/>
<path d="M128.064 326.439C126.968 325.349 126.155 326.867 126.297 327.827" stroke="#9797A2" stroke-width="2"/>
<path d="M126.297 327.827C122.443 329.601 119.75 332.283 118.219 335.873C118.021 336.323 118.116 336.704 118.503 337.015C120.155 338.313 122.404 338.525 125.252 337.651" stroke="#AAAAAF" stroke-width="2"/>
<path d="M125.252 337.651C125.062 337.963 125.178 338.335 125.6 338.767" stroke="#2C2C30" stroke-width="2"/>
<path d="M114.013 334.615C113.729 334.658 113.449 334.701 113.174 334.745" stroke="#2C2C30" stroke-width="2"/>
<path d="M113.174 334.744L114.039 334.355C114.409 334.191 114.632 333.914 114.71 333.524C116.619 324.57 120.852 318.082 120.748 308.777C120.74 308.301 120.903 307.895 121.239 307.557L123.252 305.533C123.3 305.485 123.338 305.428 123.362 305.364C123.386 305.3 123.396 305.232 123.391 305.164C123.386 305.096 123.367 305.03 123.334 304.97C123.301 304.911 123.255 304.859 123.2 304.819C121.91 303.885 120.92 302.712 120.232 301.302" stroke="#AAAAAF" stroke-width="2"/>
<path d="M135.187 296.176C135.273 297.336 135.578 298.119 136.103 298.525" stroke="#9797A2" stroke-width="2"/>
<path d="M131.548 303.911L123.406 306.701C122.985 306.844 122.618 307.117 122.357 307.482C122.096 307.847 121.953 308.286 121.948 308.738C121.923 317.809 118.361 324.376 116.077 332.811C116.013 333.046 116.035 333.298 116.14 333.518C116.246 333.739 116.427 333.913 116.65 334.01C116.874 334.106 117.124 334.118 117.356 334.043C117.587 333.968 117.784 333.812 117.91 333.602C119.084 331.656 120.219 330.28 122.168 328.814C128.43 324.107 133.037 318.047 135.987 310.633C136.288 309.88 136.034 309.504 135.226 309.504H134.206C133.613 309.504 133.406 309.218 133.587 308.647C134.026 307.289 134.077 306.182 133.742 305.325" stroke="#AAAAAF" stroke-width="2"/>
<path d="M139.69 298.149C139.802 297.301 139.591 296.717 139.058 296.397C138.628 296.146 138.284 296.233 138.026 296.656L137.716 297.176C137.449 297.634 137.295 297.599 137.252 297.072C137.131 295.575 136.512 294.589 135.394 294.113" stroke="#9797A2" stroke-width="2"/>
<path d="M125.252 337.651C126.981 336.838 128.585 335.268 130.064 332.94C133.024 328.295 137.105 322.49 142.31 315.525C145.161 311.723 150.013 304.248 145.187 300.407" stroke="#818181" stroke-width="2"/>
<path d="M126.297 327.827C126.804 327.698 127.394 327.235 128.064 326.439" stroke="#ECECF3" stroke-width="2"/>
<path d="M113.174 334.744C112.193 334.641 111.071 334.169 109.806 333.33" stroke="#818181" stroke-width="2"/>
<path d="M94.7999 314.721C95.2214 313.284 95.3161 311.758 95.0838 310.14" stroke="#7C6459" stroke-width="2"/>
<path d="M89.4064 338.313C89.5268 337.526 89.9397 337.02 90.6451 336.795" stroke="#ECECF3" stroke-width="2"/>
<path d="M81.6386 338.053L80.6709 337.327" stroke="#878895" stroke-opacity="0.996" stroke-width="2"/>
<path d="M115.858 35.116C115.669 34.9949 115.449 35.116 115.2 35.4794C113.634 32.9186 111.733 32.4471 109.497 34.0649C109.118 34.3417 108.778 34.2985 108.477 33.9351C104.774 29.5099 103.11 21.9183 98.0903 19.4137C97.7462 19.2407 97.3935 19.2191 97.0322 19.3488C91.1613 21.3862 80.671 19.0633 82.2064 29.8343C83.4193 38.3214 82.5032 47.7038 90.3613 53.3099C89.7677 53.5695 89.5398 53.855 89.6774 54.1664C81.3032 47.7298 83.4322 42.6298 81.7161 33.2343C81.6387 32.8018 81.4365 32.4384 81.1097 32.1443C79.6817 30.8639 78.9591 29.259 78.9419 27.3298C80.2451 27.8618 82.129 23.6053 82.7355 22.5801C82.9677 22.1735 82.9118 21.8102 82.5677 21.4901L81.3677 20.374C81.3044 20.3258 81.2627 20.2543 81.2518 20.1752C81.241 20.0962 81.2618 20.0159 81.3097 19.9523C81.3576 19.8886 81.4287 19.8467 81.5073 19.8357C81.586 19.8248 81.6657 19.8457 81.729 19.8939C82.9333 20.6725 84.2236 20.932 85.6 20.6725C86.2968 20.5341 86.4559 20.1621 86.0774 19.5565L84.0903 16.3771C83.9699 16.1954 84.0129 16.07 84.2193 16.0008C84.3226 15.9661 84.4301 15.9272 84.5419 15.884C84.7165 15.8263 84.9066 15.8403 85.0709 15.923C85.2352 16.0056 85.3605 16.1502 85.4193 16.3252C85.7806 17.4326 86.3914 18.3712 87.2516 19.1412C87.5527 19.4181 87.9011 19.5824 88.2968 19.6343C92.9161 20.3265 96.2279 18.6308 98.2322 14.5473C98.5505 13.8898 98.7183 13.9287 98.7355 14.6641C98.7613 15.6158 98.5677 16.5285 98.1548 17.4023C98.0737 17.569 98.0579 17.7602 98.1105 17.9381C98.1631 18.116 98.2802 18.2675 98.4387 18.3626C98.7226 18.5356 99.1226 18.5832 99.6387 18.5053C103.858 22.7488 104.955 27.174 108.155 32.1702C108.273 32.3537 108.428 32.5099 108.61 32.6286C108.792 32.7474 108.997 32.8259 109.212 32.859C109.427 32.8921 109.646 32.8791 109.855 32.8207C110.064 32.7624 110.259 32.6601 110.426 32.5206C111.389 31.7247 112.387 31.6122 113.419 32.1832C113.841 32.4168 114.172 32.3259 114.413 31.9107C117.948 25.8504 118.039 16.1954 110.181 13.5221C109.785 13.3837 109.449 13.1501 109.174 12.8214C102.4 4.49006 90.1032 8.34426 82.4903 13.3794C79.4581 15.3779 78.0129 17.7397 79.4968 21.2824C79.6602 21.6631 79.6645 22.0438 79.5097 22.4244C79.3548 22.8224 79.1269 23.1382 78.8258 23.3717C76.6753 18.7432 77.3978 15.2091 80.9935 12.7695C89.2387 7.16335 102.529 2.60838 109.729 11.7572C109.987 12.086 110.318 12.3196 110.723 12.458C119.045 15.3259 119.252 24.9809 116.297 31.6641C115.832 32.7282 115.686 33.8789 115.858 35.116Z" fill="#020202" fill-opacity="0.996"/>
<path d="M99.6387 18.5053L101.11 17.1298C101.617 16.6539 101.523 16.3684 100.826 16.2733C99.4709 16.0916 99.2258 17.2985 99.6387 18.5053C99.1225 18.5832 98.7226 18.5356 98.4387 18.3626C98.2802 18.2675 98.1631 18.116 98.1105 17.9381C98.0579 17.7603 98.0737 17.569 98.1548 17.4023C98.5677 16.5285 98.7613 15.6158 98.7354 14.6641C98.7182 13.9288 98.5505 13.8898 98.2322 14.5473C96.2279 18.6308 92.9161 20.3265 88.2967 19.6344C87.901 19.5824 87.5527 19.4181 87.2516 19.1412C86.3914 18.3712 85.7806 17.4326 85.4193 16.3252C85.3604 16.1502 85.2352 16.0056 85.0709 15.923C84.9066 15.8403 84.7164 15.8263 84.5419 15.884C84.4301 15.9272 84.3225 15.9662 84.2193 16.0008C84.0129 16.07 83.9699 16.1954 84.0903 16.3771L86.0774 19.5565C86.4559 20.1621 86.2967 20.5341 85.6 20.6725C84.2236 20.9321 82.9333 20.6725 81.729 19.8939C81.6657 19.8457 81.5859 19.8248 81.5073 19.8357C81.4287 19.8467 81.3576 19.8886 81.3096 19.9523C81.2617 20.016 81.2409 20.0962 81.2518 20.1753C81.2627 20.2544 81.3044 20.3259 81.3677 20.374L82.5677 21.4901C82.9118 21.8102 82.9677 22.1735 82.7355 22.5802C82.129 23.6053 80.2451 27.8618 78.9419 27.3298C78.6064 26.0494 78.5677 24.73 78.8258 23.3718C79.1268 23.1382 79.3548 22.8224 79.5096 22.4244C79.6645 22.0438 79.6602 21.6631 79.4967 21.2824C78.0129 17.7397 79.458 15.3779 82.4903 13.3794C90.1032 8.34427 102.4 4.49008 109.174 12.8214C109.449 13.1501 109.785 13.3837 110.181 13.5221C118.039 16.1954 117.948 25.8504 114.413 31.9107C114.172 32.326 113.841 32.4168 113.419 32.1832C112.387 31.6122 111.389 31.7247 110.426 32.5206C110.259 32.6601 110.064 32.7624 109.855 32.8207C109.646 32.8791 109.427 32.8921 109.212 32.859C108.997 32.8259 108.792 32.7474 108.61 32.6287C108.428 32.5099 108.273 32.3537 108.155 32.1702C104.955 27.174 103.858 22.7489 99.6387 18.5053ZM108.516 25.1107C108.912 25.699 109.424 25.8461 110.052 25.5519C110.404 25.3962 110.421 25.2059 110.103 24.9809L106.477 22.5153C106.42 22.4689 106.348 22.4447 106.274 22.4471C106.2 22.4496 106.129 22.4784 106.075 22.5286C106.02 22.5787 105.986 22.6467 105.977 22.7204C105.967 22.7941 105.985 22.8686 106.026 22.9305C106.464 23.6832 107.075 24.2239 107.858 24.5527C108.128 24.6714 108.356 24.8653 108.516 25.1107ZM106.284 25.8634L105.91 26.655C105.897 26.6813 105.889 26.71 105.887 26.7394C105.885 26.7688 105.889 26.7983 105.899 26.8261C105.908 26.8539 105.923 26.8795 105.943 26.9014C105.963 26.9233 105.986 26.941 106.013 26.9534L107.677 27.758C108.346 28.0804 109.016 28.3859 109.646 28.6567C110.276 28.9275 110.855 29.1582 111.35 29.3356C111.844 29.513 112.244 29.6335 112.526 29.6902C112.808 29.7468 112.967 29.7385 112.994 29.6656L113.058 29.5229C113.108 29.3765 112.63 28.9839 111.73 28.43C110.829 27.8762 109.577 27.2058 108.245 26.5641L106.581 25.7595C106.554 25.7464 106.526 25.7386 106.497 25.7367C106.467 25.7348 106.438 25.7388 106.41 25.7485C106.383 25.7582 106.357 25.7733 106.336 25.793C106.314 25.8128 106.296 25.8367 106.284 25.8634Z" fill="#6D4E4D"/>
<path d="M99.6388 18.5053C99.2259 17.2985 99.471 16.0916 100.826 16.2733C101.523 16.3684 101.617 16.6539 101.11 17.1298L99.6388 18.5053Z" fill="#020202" fill-opacity="0.996"/>
<path d="M115.2 35.4794C114.753 39.1216 112.791 41.7517 109.316 43.3695C108.912 43.5598 108.645 43.8713 108.516 44.3038C107.368 48.1191 106.916 55.9702 110.916 58.4748C113.084 59.8244 113.247 61.386 111.406 63.1596C107.458 66.9748 102.916 68.969 97.7807 69.142C91.7162 69.3367 87.0452 66.4168 88.2452 59.6557L91.3936 56.2428C91.6861 55.9227 92.0517 55.7453 92.4904 55.7107C95.0323 55.516 105.574 52.0252 105.187 48.0931C105.18 48.0103 105.148 47.9316 105.096 47.8671C105.043 47.8027 104.973 47.7555 104.894 47.7318C104.815 47.708 104.73 47.7087 104.651 47.7338C104.572 47.7589 104.503 47.8072 104.452 47.8725C101.136 51.8046 95.6388 55.5809 90.3613 53.3099C82.5033 47.7038 83.4194 38.3214 82.2065 29.8344C80.671 19.0634 91.1613 21.3863 97.0323 19.3489C97.3936 19.2191 97.7463 19.2407 98.0904 19.4138C103.11 21.9183 104.774 29.5099 108.477 33.9351C108.779 34.2985 109.118 34.3417 109.497 34.0649C111.733 32.4471 113.634 32.9186 115.2 35.4794ZM100.219 30.3794C98.628 29.1769 96.9033 28.887 95.0452 29.5099C94.5979 29.657 94.5205 29.9209 94.813 30.3015C94.9033 30.4183 98.4517 30.0809 99.7291 31.0153C99.8237 31.0758 99.9097 31.0672 99.9871 30.9893C100.073 30.9115 100.159 30.8293 100.245 30.7428C100.269 30.7179 100.287 30.6884 100.298 30.6561C100.31 30.6239 100.314 30.5895 100.312 30.5554C100.31 30.5212 100.3 30.4879 100.284 30.4576C100.268 30.4273 100.246 30.4006 100.219 30.3794ZM87.6646 29.6657C86.1936 28.6015 80.7226 32.2351 87.4968 30.5351C88.1678 30.3707 88.2237 30.0809 87.6646 29.6657ZM95.6775 34.3634C94.8947 35.4188 95.0452 36.1845 96.1291 36.6603C96.2126 36.6953 96.3024 36.7126 96.3929 36.7111C96.4834 36.7096 96.5726 36.6893 96.655 36.6515C96.7373 36.6138 96.811 36.5593 96.8715 36.4916C96.932 36.4239 96.978 36.3444 97.0065 36.258C97.2818 35.3929 97.1097 34.7224 96.4904 34.2466C96.3672 34.1536 96.2123 34.1137 96.0599 34.1357C95.9074 34.1576 95.7699 34.2395 95.6775 34.3634ZM87.0323 36.1672C87.0949 36.0505 87.1262 35.9194 87.1233 35.7869C87.1204 35.6543 87.0833 35.5248 87.0157 35.411C86.948 35.2972 86.8522 35.203 86.7375 35.1377C86.6228 35.0723 86.4932 35.038 86.3613 35.0382H85.8968C85.5699 35.0382 85.3506 35.1939 85.2388 35.5054C84.9979 36.1975 85.0968 36.7685 85.5355 37.2183C85.9398 37.6336 86.2796 37.5817 86.5549 37.0626L87.0323 36.1672ZM112.877 36.7771C113.028 36.8089 113.184 36.7835 113.317 36.7058C113.449 36.6281 113.548 36.5037 113.595 36.3567C113.642 36.2097 113.632 36.0505 113.569 35.91C113.505 35.7695 113.392 35.6577 113.252 35.5962C112.103 35.0512 108.323 35.6351 109.2 37.6985C109.424 38.2435 109.729 38.2911 110.116 37.8412C110.908 36.9328 111.828 36.5781 112.877 36.7771ZM89.871 36.9847C88.8904 38.6328 86.7742 41.5138 89.4323 43.0191C90.2237 43.4603 90.3699 43.3046 89.871 42.5519C88.8904 41.0552 89.1011 39.5888 90.5033 38.1527C90.7183 37.9277 90.7742 37.6682 90.671 37.3741C90.628 37.2616 90.5893 37.1534 90.5549 37.0496C90.5323 36.9798 90.4899 36.9181 90.4329 36.8722C90.376 36.8263 90.3068 36.7981 90.2341 36.7912C90.1614 36.7843 90.0883 36.799 90.0238 36.8334C89.9593 36.8678 89.9062 36.9204 89.871 36.9847ZM110.155 39.9176C110.043 40.0992 109.979 40.2939 109.961 40.5015C109.936 41.0379 110.142 41.1504 110.581 40.8389C111.45 40.2247 111.918 39.4028 111.987 38.3733C112.003 38.2703 111.98 38.1649 111.923 38.0782C111.865 37.9914 111.777 37.9296 111.676 37.9051C111.576 37.8806 111.469 37.8951 111.379 37.9458C111.288 37.9965 111.22 38.0796 111.187 38.1786C111.058 38.4728 110.908 38.754 110.736 39.0221C110.348 39.6191 110.155 39.9176 110.155 39.9176ZM90.8646 47.1458C92.9678 47.8466 97.2388 47.3015 97.7807 44.771C97.8065 44.6672 97.7721 44.6412 97.6775 44.6931C95.5871 45.7746 93.3721 46.2677 91.0323 46.1725C90.914 46.167 90.7987 46.2046 90.7074 46.2786C90.616 46.3526 90.5546 46.458 90.5343 46.5758C90.514 46.6935 90.5362 46.8158 90.5968 46.9204C90.6574 47.025 90.7524 47.1049 90.8646 47.1458Z" fill="#F5C6AF"/>
<path d="M107.858 24.5527C107.075 24.2239 106.465 23.6832 106.026 22.9305C105.985 22.8686 105.968 22.7941 105.977 22.7204C105.986 22.6467 106.02 22.5787 106.075 22.5285C106.129 22.4784 106.2 22.4496 106.274 22.4471C106.348 22.4447 106.42 22.4689 106.477 22.5153L110.103 24.9809C110.422 25.2058 110.404 25.3962 110.052 25.5519C109.424 25.8461 108.912 25.699 108.516 25.1107C108.356 24.8653 108.128 24.6714 107.858 24.5527Z" fill="#020202" fill-opacity="0.996"/>
<path d="M106.284 25.8634C106.296 25.8367 106.314 25.8128 106.336 25.7931C106.357 25.7733 106.383 25.7582 106.41 25.7485C106.438 25.7388 106.467 25.7348 106.497 25.7367C106.526 25.7386 106.554 25.7464 106.581 25.7596L108.245 26.5641C109.577 27.2058 110.829 27.8762 111.73 28.4301C112.63 28.9839 113.108 29.3765 113.058 29.5229L112.994 29.6657C112.967 29.7385 112.808 29.7468 112.526 29.6902C112.244 29.6335 111.844 29.513 111.35 29.3356C110.855 29.1582 110.276 28.9275 109.646 28.6567C109.016 28.3859 108.346 28.0805 107.677 27.758L106.013 26.9534C105.986 26.941 105.963 26.9233 105.943 26.9014C105.923 26.8795 105.908 26.8539 105.899 26.8261C105.889 26.7983 105.885 26.7688 105.887 26.7394C105.889 26.71 105.897 26.6813 105.91 26.655L106.284 25.8634Z" fill="#020202" fill-opacity="0.996"/>
<path d="M100.219 30.3794C100.246 30.4006 100.268 30.4273 100.284 30.4576C100.3 30.4878 100.309 30.5212 100.312 30.5554C100.314 30.5895 100.31 30.6239 100.298 30.6561C100.287 30.6884 100.269 30.7179 100.245 30.7428C100.159 30.8293 100.073 30.9115 99.987 30.9893C99.9096 31.0672 99.8236 31.0758 99.729 31.0153C98.4516 30.0809 94.9032 30.4183 94.8128 30.3015C94.5204 29.9209 94.5978 29.657 95.0451 29.5099C96.9032 28.887 98.6279 29.1769 100.219 30.3794Z" fill="#020202" fill-opacity="0.996"/>
<path d="M87.4967 30.5351C80.7225 32.2351 86.1935 28.6015 87.6645 29.6656C88.2236 30.0809 88.1677 30.3707 87.4967 30.5351Z" fill="#353743" fill-opacity="0.992"/>
<path d="M95.6775 34.3633C95.7699 34.2394 95.9074 34.1575 96.0599 34.1356C96.2123 34.1137 96.3672 34.1536 96.4904 34.2466C97.1097 34.7224 97.2818 35.3929 97.0065 36.258C96.978 36.3444 96.932 36.4239 96.8715 36.4916C96.811 36.5593 96.7373 36.6138 96.655 36.6515C96.5726 36.6893 96.4834 36.7095 96.3929 36.711C96.3024 36.7126 96.2126 36.6953 96.1291 36.6603C95.0452 36.1845 94.8947 35.4188 95.6775 34.3633Z" fill="#020202" fill-opacity="0.996"/>
<path d="M87.0322 36.1672L86.5548 37.0626C86.2795 37.5817 85.9397 37.6336 85.5354 37.2183C85.0967 36.7685 84.9978 36.1975 85.2386 35.5054C85.3505 35.1939 85.5698 35.0382 85.8967 35.0382H86.3612C86.4931 35.038 86.6227 35.0723 86.7374 35.1377C86.8521 35.203 86.9479 35.2972 87.0156 35.411C87.0832 35.5248 87.1203 35.6543 87.1232 35.7869C87.1261 35.9194 87.0948 36.0505 87.0322 36.1672Z" fill="#020202" fill-opacity="0.996"/>
<path d="M115.858 35.116C115.918 39.2514 114.043 42.2361 110.232 44.0702C110.053 44.1583 109.896 44.2875 109.775 44.4475C109.654 44.6076 109.572 44.7939 109.535 44.9916C108.619 49.6634 107.768 56.0741 113.226 58.1634C113.114 59.1237 113.376 59.6774 114.013 59.8244C110.77 71.3567 107.892 82.8761 105.381 94.3825C100.155 118.377 105.084 141.671 104.026 165.458C104.021 165.61 104.054 165.76 104.12 165.897C104.187 166.033 104.285 166.151 104.407 166.241C104.529 166.33 104.671 166.388 104.82 166.41C104.97 166.432 105.122 166.417 105.265 166.366L105.806 166.172C105.746 166.302 106 166.427 106.568 166.548L105.29 167.353C105.046 167.504 104.765 167.587 104.478 167.591C104.19 167.596 103.907 167.523 103.657 167.38C103.408 167.236 103.202 167.028 103.06 166.777C102.918 166.525 102.846 166.24 102.852 165.951L103.006 159.151C103.015 158.684 102.791 158.481 102.335 158.541C96.486 159.242 90.6882 158.922 84.9419 157.581C84.7418 157.536 84.5324 157.569 84.3571 157.673C84.1818 157.776 84.054 157.943 84 158.139L83.5484 159.67L82.6968 159.579C83.5097 149.743 84.1936 140.529 84.0516 130.186C83.7419 106.594 84.6667 82.954 86.8258 59.2664L88.2452 59.6557C87.0452 66.4168 91.7161 69.3366 97.7807 69.142C102.916 68.969 107.458 66.9748 111.406 63.1595C113.247 61.386 113.084 59.8244 110.916 58.4748C106.916 55.9702 107.368 48.1191 108.516 44.3038C108.645 43.8713 108.912 43.5598 109.316 43.3695C112.791 41.7517 114.753 39.1216 115.2 35.4794C115.449 35.116 115.669 34.9949 115.858 35.116ZM85.8839 105.335C86.1161 127.124 85.0065 139.465 84.2452 155.738C84.228 156.136 84.4086 156.391 84.7871 156.504C90.5333 158.217 96.3312 158.463 102.181 157.244C102.585 157.157 102.804 156.906 102.839 156.491C103.045 153.973 103.29 151.715 103.071 149.224C101.591 132.475 101.024 120.505 101.368 113.316C102.103 97.484 106.632 81.2626 111.071 66.2092C111.092 66.1355 111.09 66.057 111.064 65.9848C111.039 65.9125 110.991 65.8504 110.928 65.8071C110.865 65.7639 110.79 65.7419 110.713 65.7442C110.637 65.7465 110.564 65.7729 110.503 65.8199C104.916 70.1283 93.3161 74.0863 88.2968 66.5855C88.2395 66.5027 88.1583 66.4396 88.0642 66.4047C87.9702 66.3698 87.8677 66.3647 87.7707 66.3902C87.6736 66.4156 87.5867 66.4704 87.5216 66.5471C87.4564 66.6238 87.4163 66.7187 87.4065 66.8191C86.4774 79.6534 85.729 91.9817 85.8839 105.335Z" fill="#55555E"/>
<path d="M112.877 36.7771C111.828 36.5781 110.908 36.9328 110.116 37.8412C109.729 38.2911 109.424 38.2435 109.2 37.6985C108.323 35.6351 112.103 35.0511 113.252 35.5962C113.392 35.6576 113.505 35.7695 113.569 35.91C113.632 36.0505 113.642 36.2096 113.595 36.3567C113.549 36.5037 113.449 36.6281 113.317 36.7058C113.184 36.7834 113.028 36.8089 112.877 36.7771Z" fill="#020202" fill-opacity="0.996"/>
<path d="M89.4322 43.0191C86.7742 41.5137 88.8903 38.6328 89.871 36.9847C89.9061 36.9204 89.9592 36.8677 90.0237 36.8333C90.0883 36.799 90.1614 36.7843 90.2341 36.7912C90.3068 36.7981 90.3759 36.8263 90.4329 36.8722C90.4899 36.9181 90.5323 36.9798 90.5548 37.0496C90.5892 37.1534 90.6279 37.2616 90.671 37.374C90.7742 37.6682 90.7183 37.9277 90.5032 38.1527C89.1011 39.5888 88.8903 41.0552 89.871 42.5519C90.3699 43.3046 90.2236 43.4603 89.4322 43.0191Z" fill="#020202" fill-opacity="0.996"/>
<path d="M110.735 39.0221C110.907 38.754 111.058 38.4728 111.187 38.1786C111.22 38.0796 111.288 37.9965 111.379 37.9458C111.469 37.8951 111.575 37.8806 111.676 37.9051C111.777 37.9296 111.865 37.9914 111.923 38.0782C111.98 38.1649 112.003 38.2703 111.987 38.3733C111.918 39.4028 111.449 40.2247 110.581 40.8389C110.142 41.1504 109.935 41.0379 109.961 40.5015C109.978 40.2939 110.043 40.0992 110.155 39.9176C110.155 39.9176 110.348 39.6191 110.735 39.0221Z" fill="#55555E"/>
<path d="M97.7806 44.771C97.2387 47.3015 92.9677 47.8466 90.8645 47.1458C90.7523 47.1049 90.6573 47.0249 90.5967 46.9204C90.5361 46.8158 90.5139 46.6935 90.5342 46.5758C90.5545 46.458 90.6159 46.3526 90.7073 46.2786C90.7986 46.2046 90.9139 46.167 91.0322 46.1725C93.372 46.2677 95.587 45.7746 97.6774 44.6931C97.772 44.6412 97.8064 44.6672 97.7806 44.771Z" fill="#55555E"/>
<path d="M88.2451 59.6557L86.8258 59.2664C76.5161 62.6015 66.4516 63.6138 63.9096 76.0588C63.187 79.5756 56.8516 102.104 57.5225 103.427C59.4666 107.217 61.1784 111.149 62.658 115.224C62.8817 115.847 62.6752 116.063 62.0387 115.873C60.3354 115.353 50.2709 89.0748 48.9161 85.6748C48.8612 85.5371 48.7696 85.4174 48.6513 85.3288C48.5331 85.2402 48.3928 85.1863 48.2459 85.1728C48.0991 85.1594 47.9514 85.1871 47.8192 85.2527C47.6869 85.3184 47.5754 85.4196 47.4967 85.545C44.8989 89.7756 41.3376 92.8814 36.8129 94.8626C36.3741 95.0529 36.2451 95.3687 36.4258 95.8099C39.1957 102.636 41.9784 109.436 44.7741 116.21C47.2086 122.127 48.5591 125.298 48.8258 125.722C50.7612 128.741 53.5397 130.826 57.1612 131.977C57.5913 132.116 58.0129 132.111 58.4258 131.964C68.7225 128.486 73.1354 118.533 72.4516 108.281C71.8322 98.773 71.243 89.2738 70.6838 79.7832C70.6745 79.6666 70.7019 79.5501 70.7621 79.45C70.8223 79.3499 70.9122 79.2713 71.0192 79.2254C71.1261 79.1795 71.2447 79.1686 71.3582 79.1942C71.4717 79.2198 71.5743 79.2805 71.6516 79.3679C73.3419 81.1458 74.0903 114.25 74.1677 118.909C74.2365 122.872 73.8322 126.817 72.9548 130.744C70.8989 139.958 68.2967 150.984 65.1483 163.823C64.9849 164.506 65.2 164.948 65.7935 165.147C65.8709 165.337 65.6172 165.48 65.0322 165.575L64.6322 165.004C64.3741 164.649 64.258 164.251 64.2838 163.81C64.4645 160.501 65.729 156.815 66.2322 154.492C68.7096 143.15 72.2451 131.38 73.6129 119.869C73.6407 119.714 73.6086 119.553 73.523 119.42C73.4374 119.287 73.3048 119.192 73.152 119.154C72.9992 119.116 72.8378 119.138 72.7005 119.216C72.5632 119.293 72.4604 119.42 72.4129 119.571C67.2258 133.002 51.987 139.647 45.4967 121.933C42.3225 113.247 38.9419 104.647 35.3548 96.1344C35.1741 95.7018 35.2301 95.3081 35.5225 94.9534C37.7161 92.2542 34.529 86.3756 33.5096 83.5855C33.2956 83.0027 32.9274 82.4901 32.4451 82.1034C31.9628 81.7167 31.3849 81.4708 30.7741 81.3924L19.7161 79.9519C20.1376 79.9173 20.5591 79.887 20.9806 79.8611L15.7935 70.6214C15.6888 70.4383 15.5357 70.288 15.3512 70.1872C15.1667 70.0864 14.958 70.0391 14.7483 70.0504C14.4817 70.0677 14.2537 70.1542 14.0645 70.3099C13.4365 70.1283 14.0516 69.7995 15.9096 69.3237C15.1526 69.0382 15.2172 68.9906 16.1032 69.1809C15.8623 69.3972 15.9268 69.6221 16.2967 69.8557C16.6408 70.072 16.9204 70.3532 17.1354 70.6992L22.4903 79.1603C22.6216 79.3728 22.8017 79.55 23.0153 79.6766C23.2288 79.8032 23.4693 79.8754 23.7161 79.887L31.7806 80.2893C32.3404 80.3157 32.8794 80.5103 33.3279 80.8481C33.7765 81.1858 34.114 81.6512 34.2967 82.184L37.7548 92.3191C37.901 92.7517 38.172 92.8641 38.5677 92.6565C41.4838 91.1166 43.7978 88.9321 45.5096 86.1031C45.8193 85.6013 45.858 85.0822 45.6258 84.5458L40.7871 73.0611C40.7014 72.8512 40.5752 72.6606 40.4157 72.5002C40.2562 72.3398 40.0667 72.2129 39.858 72.1267L28.1548 67.2084C27.9843 67.1373 27.793 67.1306 27.6168 67.1896C27.4405 67.2485 27.2916 67.3691 27.1981 67.5286C27.1045 67.6882 27.0727 67.8756 27.1087 68.0556C27.1447 68.2356 27.246 68.3958 27.3935 68.5061L31.2 71.5038C31.7333 71.9277 31.6731 72.2132 31.0193 72.3603C29.7204 72.6631 28.4086 72.5896 27.0838 72.1397C26.6365 71.984 26.2107 72.0272 25.8064 72.2695C24.9806 72.7626 24.1333 72.6415 23.2645 71.9061C23.1546 71.8224 23.0278 71.7907 22.9063 71.8166C22.7847 71.8426 22.6761 71.9245 22.5993 72.048C22.5225 72.1716 22.4825 72.329 22.4861 72.4928C22.4898 72.6565 22.5369 72.8163 22.6193 72.9443C23.6516 74.3891 24.615 75.8901 25.5096 77.4473C25.551 77.5203 25.565 77.6058 25.5489 77.6882C25.5329 77.7707 25.4879 77.8446 25.4223 77.8965C25.3566 77.9484 25.2746 77.9748 25.1911 77.971C25.1077 77.9671 25.0284 77.9333 24.9677 77.8756C22.9376 75.929 21.3634 73.6797 20.2451 71.1275C20.0817 70.7295 19.8021 70.4397 19.4064 70.258L16.7741 69.0252C17.2559 68.5407 17.9483 68.3547 18.8516 68.4672C19.0727 68.4955 19.284 68.5733 19.4696 68.6948C19.6552 68.8162 19.8101 68.978 19.9225 69.1679C21.3935 71.6249 23.587 72.2911 26.5032 71.1664C27.0795 70.9415 27.1655 70.5911 26.7612 70.1153C26.2279 69.4751 26.0172 68.6575 26.129 67.6626C26.1621 67.3813 26.2593 67.1116 26.413 66.874C26.5667 66.6365 26.7729 66.4374 27.0158 66.2921C27.2587 66.1468 27.5318 66.0591 27.8142 66.0357C28.0966 66.0124 28.3808 66.0539 28.6451 66.1573C31.8881 67.455 35.0709 68.8219 38.1935 70.258C42.658 72.3084 44.6322 77.9534 45.9612 82.3138C46.0903 82.7377 46.3698 83.0015 46.8 83.1054C50.4258 83.9489 50.2967 86.1679 51.5483 89.0099C53.1139 92.557 54.4731 96.0781 55.6258 99.5733C55.6706 99.7099 55.7585 99.8281 55.8761 99.91C55.9937 99.9918 56.1346 100.033 56.2775 100.027C56.4204 100.021 56.5575 99.9687 56.6681 99.8774C56.7787 99.7862 56.8567 99.6612 56.8903 99.5214C58.6709 92.5657 60.4559 85.5926 62.2451 78.6023C66.3354 62.6015 75.2903 61.5115 88.6967 57.3847C90.387 56.8657 90.9419 55.568 89.6774 54.1664C89.5397 53.855 89.7677 53.5695 90.3612 53.3099C95.6387 55.5809 101.135 51.8046 104.452 47.8725C104.503 47.8072 104.572 47.7589 104.651 47.7338C104.73 47.7087 104.815 47.708 104.894 47.7318C104.973 47.7555 105.043 47.8027 105.096 47.8671C105.148 47.9316 105.18 48.0103 105.187 48.0931C105.574 52.0252 95.0322 55.516 92.4903 55.7107C92.0516 55.7453 91.686 55.9227 91.3935 56.2428L88.2451 59.6557Z" fill="#353743" fill-opacity="0.992"/>
<path d="M113.226 58.1634C119.419 60.6723 125.505 63.4753 131.484 66.5725C138.748 70.3359 141.626 74.9427 142.877 82.742C144.933 95.5547 147.759 111.101 151.355 129.382C153.2 138.803 145.045 147.498 140.258 155.011C140.052 155.34 140.004 155.691 140.116 156.063L144.168 170.35C144.236 170.588 144.248 170.838 144.203 171.082C144.158 171.325 144.058 171.554 143.91 171.752C141.75 174.641 138.826 176.13 135.135 176.216C134.688 176.225 134.43 176.454 134.361 176.904L132.658 187.493L130.826 192.827C132.619 182.03 134.335 173.802 133.135 167.444C133.106 167.286 133.026 167.142 132.907 167.035C132.788 166.928 132.638 166.864 132.478 166.852C132.319 166.84 132.161 166.881 132.028 166.97C131.894 167.058 131.794 167.188 131.742 167.34C131.166 169.079 130.047 170.229 128.387 170.792C127.923 170.956 127.626 171.276 127.497 171.752L126.761 174.49C126.738 174.578 126.734 174.67 126.748 174.759C126.762 174.849 126.794 174.935 126.842 175.012C126.891 175.088 126.954 175.154 127.029 175.205C127.104 175.256 127.189 175.291 127.277 175.308L130.452 175.905C130.579 175.928 130.679 175.998 130.732 176.099C130.784 176.2 130.783 176.323 130.73 176.442C130.704 176.5 130.666 176.556 130.617 176.606C130.569 176.656 130.512 176.699 130.449 176.732C130.321 176.799 130.179 176.824 130.052 176.8C121.295 175.321 115.419 170.389 112.426 162.006C112.211 161.409 111.88 161.331 111.432 161.773L106.568 166.548C106 166.427 105.746 166.302 105.806 166.172C107.923 163.308 110.404 160.977 113.252 159.177C113.63 158.944 113.91 158.623 114.09 158.217C117.144 151.304 120.8 144.729 125.058 138.492C125.092 138.444 125.115 138.389 125.126 138.331C125.136 138.273 125.134 138.214 125.119 138.157C125.104 138.1 125.077 138.047 125.04 138.002C125.003 137.956 124.956 137.92 124.903 137.895C124.658 137.778 113.226 148.354 110.813 146.226C110.409 145.863 110.46 145.586 110.968 145.395C115.596 143.7 119.656 141.091 123.148 137.57C123.475 137.241 123.854 136.999 124.284 136.844C125.815 136.281 126.297 135.139 125.729 133.418C125.574 132.968 125.626 132.539 125.884 132.133L128 128.746C128.163 128.512 128.512 128.287 129.045 128.071C127.97 130.545 127.402 133.063 127.342 135.624C127.325 136.099 127.204 136.545 126.981 136.96L114.245 160.202C114.012 160.625 113.918 161.111 113.976 161.591C114.034 162.071 114.241 162.521 114.568 162.876C118.215 166.838 122.718 169.083 128.077 169.611C128.507 169.654 128.852 169.498 129.11 169.144C139.312 154.652 145.673 145.235 148.193 140.892C152.193 134.002 149.832 128.798 148.49 121.686C145.419 105.24 143.553 94.417 142.89 89.2176C141.845 81.0031 140 71.6206 131.755 67.6237C126.12 64.8898 120.206 62.2901 114.013 59.8244C113.376 59.6774 113.114 59.1237 113.226 58.1634ZM138.361 157.905L133.781 164.718C133.54 165.073 133.501 165.449 133.664 165.847C134.817 168.711 135.178 171.7 134.748 174.815C134.68 175.36 134.916 175.606 135.458 175.554C137.355 175.385 143.6 172.816 142.89 170.013C141.858 165.895 140.692 161.907 139.393 158.048C139.144 157.304 138.8 157.256 138.361 157.905ZM124.864 169.935C121.398 169.122 118.344 167.53 115.703 165.16C115.604 165.059 115.471 165 115.331 164.994C115.19 164.989 115.053 165.037 114.947 165.129C114.84 165.221 114.772 165.351 114.757 165.491C114.742 165.632 114.78 165.773 114.864 165.886C117.29 169.589 120.507 172.405 124.516 174.334C124.903 174.525 125.247 174.464 125.548 174.153C126.107 173.59 126.413 172.907 126.464 172.102C126.542 170.926 126.009 170.203 124.864 169.935Z" fill="#353743" fill-opacity="0.992"/>
<path d="M86.8258 59.2664C84.6667 82.9539 83.742 106.594 84.0516 130.186C84.1936 140.529 83.5097 149.743 82.6968 159.579C82.7054 161.266 82.4301 162.612 81.871 163.615C80.0129 166.963 68.9936 165.756 65.7936 165.147C65.2 164.948 64.985 164.506 65.1484 163.823C68.2968 150.984 70.899 139.958 72.9549 130.744C73.8323 126.817 74.2366 122.871 74.1678 118.909C74.0903 114.25 73.342 81.1458 71.6516 79.3679C71.5744 79.2805 71.4718 79.2197 71.3583 79.1942C71.2448 79.1686 71.1262 79.1795 71.0192 79.2254C70.9123 79.2713 70.8223 79.3499 70.7622 79.45C70.702 79.55 70.6746 79.6666 70.6839 79.7832C71.243 89.2738 71.8323 98.773 72.4516 108.281C73.1355 118.533 68.7226 128.486 58.4258 131.964C58.0129 132.111 57.5914 132.116 57.1613 131.977C53.5398 130.826 50.7613 128.741 48.8258 125.722C48.5592 125.298 47.2086 122.127 44.7742 116.21C41.9785 109.436 39.1957 102.636 36.4258 95.8099C36.2452 95.3687 36.3742 95.0529 36.8129 94.8626C41.3377 92.8814 44.899 89.7756 47.4968 85.545C47.5754 85.4196 47.687 85.3184 47.8192 85.2527C47.9514 85.187 48.0991 85.1594 48.246 85.1728C48.3928 85.1862 48.5332 85.2402 48.6514 85.3288C48.7697 85.4174 48.8613 85.5371 48.9162 85.6748C50.271 89.0748 60.3355 115.353 62.0387 115.873C62.6753 116.063 62.8818 115.847 62.6581 115.224C61.1785 111.149 59.4667 107.217 57.5226 103.427C56.8516 102.104 63.1871 79.5756 63.9097 76.0588C66.4516 63.6137 76.5162 62.6015 86.8258 59.2664Z" fill="#9BA6E1"/>
<path d="M114.013 59.8244C120.206 62.2901 126.12 64.8898 131.755 67.6237C140 71.6206 141.845 81.0031 142.89 89.2176C143.553 94.4171 145.419 105.24 148.49 121.686C149.832 128.798 152.194 134.002 148.194 140.892C145.673 145.235 139.312 154.652 129.11 169.144C128.852 169.498 128.508 169.654 128.077 169.611C122.718 169.083 118.215 166.838 114.568 162.876C114.241 162.521 114.034 162.071 113.976 161.591C113.918 161.111 114.012 160.625 114.245 160.202L126.981 136.96C127.204 136.545 127.325 136.1 127.342 135.624C127.402 133.063 127.97 130.545 129.045 128.071L125.161 109.319L122.877 92.929C122.826 92.5484 122.611 92.3926 122.232 92.4618C120.516 92.7992 123.252 107.463 123.652 109.345C123.587 116.197 121.806 123.464 128 128.746L125.884 132.133C125.626 132.539 125.574 132.968 125.729 133.418C126.297 135.139 125.815 136.281 124.284 136.844C123.854 136.999 123.475 137.241 123.148 137.57C119.656 141.091 115.596 143.7 110.968 145.395C110.46 145.586 110.409 145.863 110.813 146.226C113.226 148.354 124.658 137.778 124.903 137.895C124.956 137.92 125.003 137.956 125.04 138.002C125.078 138.047 125.105 138.1 125.119 138.157C125.134 138.214 125.136 138.273 125.126 138.331C125.115 138.389 125.092 138.444 125.058 138.492C120.8 144.729 117.144 151.304 114.09 158.217C113.91 158.623 113.63 158.944 113.252 159.177C110.404 160.977 107.923 163.308 105.806 166.172L105.265 166.366C105.122 166.417 104.97 166.432 104.82 166.41C104.671 166.388 104.529 166.33 104.407 166.241C104.285 166.151 104.187 166.033 104.12 165.897C104.054 165.76 104.021 165.61 104.026 165.458C105.084 141.671 100.155 118.377 105.381 94.3825C107.893 82.8761 110.77 71.3567 114.013 59.8244ZM125.187 81.4573C126.572 77.9275 128.606 74.8216 131.29 72.1397C131.321 72.107 131.339 72.0646 131.343 72.0197C131.346 71.9749 131.333 71.9303 131.307 71.8936C131.282 71.857 131.244 71.8304 131.201 71.8185C131.158 71.8066 131.112 71.81 131.071 71.8282C127.105 73.7143 124.955 76.8807 124.619 81.3275C124.617 81.3965 124.639 81.4641 124.682 81.5187C124.724 81.5733 124.783 81.6115 124.85 81.6268C124.917 81.6421 124.987 81.6336 125.049 81.6027C125.11 81.5718 125.159 81.5204 125.187 81.4573ZM131.277 130.225L131.006 131.406C130.999 131.433 130.997 131.462 131 131.49C131.004 131.518 131.014 131.545 131.028 131.57C131.043 131.594 131.062 131.615 131.085 131.631C131.108 131.648 131.134 131.66 131.161 131.666L141.974 134.105C142.164 134.148 142.363 134.113 142.528 134.009C142.692 133.904 142.809 133.738 142.852 133.547L142.89 133.405C142.913 133.309 142.917 133.21 142.901 133.113C142.886 133.016 142.851 132.923 142.8 132.84C142.748 132.757 142.68 132.684 142.601 132.628C142.521 132.571 142.431 132.531 142.336 132.509L131.523 130.069C131.47 130.058 131.414 130.068 131.368 130.097C131.322 130.126 131.29 130.172 131.277 130.225Z" fill="#9BA6E1"/>
<path d="M84.2451 155.738C85.0064 139.465 86.1161 127.124 85.8838 105.335C85.729 91.9817 86.4774 79.6534 87.4064 66.8191C87.4162 66.7187 87.4564 66.6238 87.5215 66.5471C87.5867 66.4704 87.6736 66.4156 87.7706 66.3902C87.8677 66.3647 87.9701 66.3698 88.0642 66.4047C88.1583 66.4396 88.2394 66.5027 88.2968 66.5855C93.3161 74.0862 104.916 70.1282 110.503 65.8198C110.564 65.7729 110.637 65.7464 110.713 65.7441C110.79 65.7419 110.865 65.7639 110.928 65.8071C110.991 65.8503 111.038 65.9125 111.064 65.9847C111.09 66.0569 111.092 66.1355 111.071 66.2091C106.632 81.2626 102.103 97.484 101.368 113.316C101.024 120.505 101.591 132.475 103.071 149.224C103.29 151.715 103.045 153.973 102.839 156.491C102.804 156.906 102.585 157.157 102.181 157.243C96.3312 158.463 90.5333 158.217 84.7871 156.504C84.4086 156.391 84.2279 156.136 84.2451 155.738ZM101.084 150.664C94.9849 148.752 90.1935 145.231 86.7097 140.101C86.6496 140.004 86.5556 139.933 86.4462 139.903C86.3368 139.873 86.2201 139.885 86.1193 139.937C86.0184 139.99 85.9409 140.078 85.9021 140.186C85.8632 140.293 85.8659 140.411 85.9097 140.516C88.1032 146.304 95.8838 150.508 101.226 152.364C101.331 152.4 101.445 152.405 101.553 152.379C101.661 152.353 101.76 152.297 101.838 152.217C101.916 152.137 101.97 152.037 101.994 151.927C102.018 151.818 102.011 151.704 101.974 151.598C101.802 151.105 101.505 150.794 101.084 150.664Z" fill="#F4D9B3"/>
<path d="M16.1032 69.1809L16.7741 69.0252L19.4064 70.258C19.8021 70.4397 20.0817 70.7295 20.2451 71.1275C21.3634 73.6796 22.9376 75.929 24.9677 77.8756C25.0284 77.9333 25.1077 77.9671 25.1911 77.971C25.2746 77.9748 25.3566 77.9484 25.4223 77.8965C25.4879 77.8446 25.5329 77.7707 25.5489 77.6882C25.565 77.6058 25.551 77.5203 25.5096 77.4473C24.615 75.8901 23.6516 74.3891 22.6193 72.9443C22.5369 72.8163 22.4898 72.6565 22.4861 72.4927C22.4825 72.329 22.5225 72.1716 22.5993 72.048C22.6761 71.9245 22.7847 71.8426 22.9063 71.8166C23.0278 71.7907 23.1546 71.8224 23.2645 71.9061C24.1333 72.6415 24.9806 72.7626 25.8064 72.2695C26.2107 72.0272 26.6365 71.984 27.0838 72.1397C28.4086 72.5896 29.7204 72.6631 31.0193 72.3603C31.6731 72.2132 31.7333 71.9277 31.1999 71.5038L27.3935 68.5061C27.246 68.3958 27.1447 68.2356 27.1087 68.0556C27.0727 67.8755 27.1045 67.6881 27.1981 67.5286C27.2916 67.3691 27.4405 67.2485 27.6167 67.1896C27.793 67.1306 27.9843 67.1373 28.1548 67.2084L39.858 72.1267C40.0667 72.2128 40.2562 72.3398 40.4157 72.5002C40.5752 72.6606 40.7014 72.8512 40.787 73.0611L45.6258 84.5458C45.858 85.0822 45.8193 85.6013 45.5096 86.103C43.7978 88.9321 41.4838 91.1165 38.5677 92.6565C38.172 92.8641 37.901 92.7517 37.7548 92.3191L34.2967 82.184C34.114 81.6512 33.7765 81.1858 33.3279 80.8481C32.8794 80.5103 32.3403 80.3156 31.7806 80.2893L23.7161 79.887C23.4693 79.8754 23.2288 79.8032 23.0153 79.6766C22.8017 79.55 22.6216 79.3728 22.4903 79.1603L17.1354 70.6992C16.9204 70.3532 16.6408 70.072 16.2967 69.8557C15.9268 69.6221 15.8623 69.3972 16.1032 69.1809ZM30.0774 75.6695C34.6838 73.9954 35.1354 75.2023 38.8516 77.3046C38.9516 77.364 39.0698 77.3847 39.1839 77.3628C39.298 77.3408 39.4003 77.2778 39.4715 77.1855C39.5428 77.0931 39.5781 76.9779 39.5708 76.8612C39.5636 76.7446 39.5143 76.6346 39.4322 76.5519C36.6451 73.6883 33.4365 73.1908 29.8064 75.0595C29.7381 75.1028 29.6875 75.1694 29.6641 75.2472C29.6407 75.3249 29.6459 75.4085 29.6789 75.4827C29.7118 75.5569 29.7703 75.6166 29.8435 75.6509C29.9167 75.6852 29.9997 75.6918 30.0774 75.6695Z" fill="#F5C6AF"/>
<path d="M15.9097 69.3237C14.0516 69.7995 13.4365 70.1282 14.0645 70.3099C15.114 73.9608 17.4193 77.1445 20.9806 79.8611C20.5591 79.887 20.1376 79.9173 19.7161 79.9519C18.0516 78.9008 8.19354 67.1954 15.9097 69.3237Z" fill="#020202" fill-opacity="0.996"/>
<path d="M20.9807 79.8611C17.4194 77.1445 15.114 73.9608 14.0646 70.3099C14.2538 70.1542 14.4818 70.0677 14.7484 70.0504C14.9581 70.0391 15.1668 70.0864 15.3513 70.1872C15.5358 70.288 15.6889 70.4383 15.7936 70.6214L20.9807 79.8611Z" fill="#F4D9B3"/>
<path d="M124.619 81.3275C124.955 76.8806 127.105 73.7142 131.071 71.8282C131.112 71.81 131.158 71.8065 131.201 71.8185C131.244 71.8304 131.282 71.8569 131.307 71.8936C131.333 71.9303 131.346 71.9749 131.343 72.0197C131.339 72.0646 131.321 72.107 131.29 72.1397C128.606 74.8216 126.572 77.9275 125.187 81.4572C125.159 81.5203 125.11 81.5717 125.049 81.6027C124.987 81.6336 124.917 81.6421 124.85 81.6268C124.783 81.6115 124.724 81.5733 124.682 81.5187C124.639 81.4641 124.617 81.3965 124.619 81.3275Z" fill="#55555E"/>
<path d="M38.8517 77.3046C35.1355 75.2023 34.6839 73.9954 30.0775 75.6695C29.9998 75.6918 29.9168 75.6852 29.8436 75.6509C29.7704 75.6166 29.7119 75.5569 29.679 75.4827C29.646 75.4085 29.6408 75.3249 29.6642 75.2472C29.6876 75.1694 29.7382 75.1028 29.8065 75.0595C33.4366 73.1908 36.6452 73.6883 39.4323 76.5519C39.5144 76.6346 39.5637 76.7446 39.5709 76.8612C39.5782 76.9779 39.5429 77.0931 39.4716 77.1855C39.4004 77.2778 39.2981 77.3408 39.184 77.3628C39.0699 77.3847 38.9517 77.364 38.8517 77.3046Z" fill="#55555E"/>
<path d="M125.161 109.319L123.652 109.345C123.252 107.463 120.516 92.7992 122.232 92.4618C122.611 92.3926 122.826 92.5483 122.877 92.929L125.161 109.319Z" fill="#55555E"/>
<path d="M123.652 109.345L125.161 109.319L129.045 128.071C128.512 128.287 128.163 128.512 128 128.746C121.806 123.464 123.587 116.197 123.652 109.345Z" fill="#020202" fill-opacity="0.996"/>
<path d="M131.277 130.225C131.29 130.172 131.322 130.126 131.368 130.097C131.414 130.068 131.47 130.058 131.523 130.069L142.336 132.509C142.431 132.531 142.521 132.571 142.601 132.628C142.68 132.684 142.748 132.757 142.8 132.84C142.851 132.923 142.886 133.016 142.901 133.113C142.917 133.21 142.913 133.309 142.89 133.405L142.852 133.547C142.809 133.738 142.692 133.904 142.528 134.009C142.363 134.113 142.164 134.148 141.974 134.105L131.161 131.666C131.134 131.66 131.108 131.648 131.085 131.632C131.062 131.615 131.043 131.594 131.028 131.57C131.014 131.545 131.004 131.518 131 131.49C130.997 131.462 130.999 131.433 131.006 131.406L131.277 130.225Z" fill="#55555E"/>
<path d="M101.084 150.664C101.505 150.794 101.802 151.105 101.974 151.598C102.011 151.704 102.018 151.818 101.994 151.927C101.97 152.037 101.916 152.137 101.838 152.217C101.76 152.297 101.661 152.353 101.553 152.379C101.445 152.405 101.331 152.4 101.226 152.364C95.8838 150.508 88.1032 146.304 85.9096 140.516C85.8659 140.411 85.8632 140.293 85.902 140.186C85.9409 140.078 86.0184 139.99 86.1192 139.937C86.2201 139.885 86.3368 139.873 86.4462 139.903C86.5556 139.933 86.6496 140.004 86.7096 140.101C90.1935 145.231 94.9849 148.752 101.084 150.664Z" fill="#55555E"/>
<path d="M106.568 166.548L111.432 161.773C111.88 161.331 112.211 161.409 112.426 162.006C115.419 170.389 121.295 175.321 130.052 176.8C130.179 176.824 130.321 176.799 130.449 176.732C130.576 176.665 130.677 176.56 130.73 176.442C130.783 176.323 130.784 176.2 130.732 176.099C130.679 175.998 130.579 175.928 130.452 175.905L127.277 175.308C127.189 175.291 127.104 175.256 127.029 175.205C126.955 175.154 126.891 175.088 126.843 175.012C126.794 174.935 126.762 174.849 126.748 174.759C126.734 174.67 126.739 174.578 126.761 174.49L127.497 171.752C127.626 171.276 127.923 170.956 128.387 170.792C130.047 170.229 131.166 169.079 131.742 167.34C131.794 167.188 131.894 167.058 132.028 166.97C132.161 166.881 132.319 166.84 132.478 166.852C132.638 166.864 132.788 166.928 132.907 167.035C133.026 167.142 133.106 167.286 133.135 167.444C134.335 173.802 132.619 182.03 130.826 192.827C128.361 207.374 123.6 221.519 121.768 235.937C120.555 245.522 119.363 255.13 118.194 264.759C116.774 265.498 116.052 263.474 115.523 262.864C107.591 253.685 99.7763 244.441 92.0774 235.132L93.3548 234.146C93.8882 234.449 94.3011 235.011 94.5936 235.833C94.7398 236.239 94.8301 236.231 94.8645 235.807C95.4581 228.635 95.9398 221.48 96.3097 214.343C96.6323 208.036 98.2323 198.602 97.7161 190.517L98.0645 183.548C98.0725 183.357 98.0315 183.167 97.9457 182.997C97.8598 182.827 97.7319 182.681 97.5742 182.575C95.0624 180.845 92.4731 179.339 89.8065 178.059C89.7686 178.038 89.7228 178.032 89.6791 178.042C89.6354 178.053 89.5974 178.079 89.5734 178.115C89.5495 178.151 89.5415 178.194 89.5514 178.235C89.5612 178.275 89.588 178.31 89.6258 178.331C92.9462 180.875 94.8387 184.66 95.3032 189.686C92.7613 197.81 83.0323 225.023 87.7548 231.278C91.5656 236.33 101.523 248.256 117.626 267.056C121.411 271.494 125.127 276.001 128.774 280.578C132.219 284.873 132.194 287.624 128.903 291.842C124.929 296.955 120.267 300.286 114.916 301.834C114.443 301.973 114.03 301.869 113.677 301.523C100.968 288.715 88.6065 275.608 76.1032 262.618C69.4065 255.675 51.8581 238.013 54.1548 228.708C58.929 209.312 63.6516 189.894 68.3226 170.454C68.4344 169.987 68.7183 169.684 69.1742 169.546L81.0839 165.834C81.5484 165.687 81.9183 165.41 82.1936 165.004C83.1742 163.533 83.6258 161.755 83.5484 159.67L84 158.139C84.054 157.943 84.1818 157.776 84.3571 157.673C84.5324 157.569 84.7418 157.536 84.9419 157.581C90.6882 158.922 96.486 159.242 102.335 158.541C102.791 158.481 103.015 158.684 103.006 159.151L102.852 165.951C102.846 166.24 102.918 166.525 103.06 166.777C103.202 167.028 103.408 167.236 103.657 167.38C103.907 167.523 104.19 167.596 104.478 167.591C104.765 167.587 105.046 167.504 105.29 167.353L106.568 166.548Z" fill="#D9D9E6"/>
<path d="M133.781 164.718L138.361 157.905C138.8 157.256 139.144 157.304 139.394 158.048C140.692 161.907 141.858 165.895 142.89 170.013C143.6 172.816 137.355 175.385 135.458 175.554C134.916 175.606 134.68 175.36 134.748 174.815C135.179 171.7 134.817 168.711 133.665 165.847C133.501 165.449 133.54 165.073 133.781 164.718Z" fill="#9BA6E1"/>
<path d="M82.6968 159.579L83.5484 159.67C83.6258 161.755 83.1742 163.533 82.1935 165.004C81.9183 165.41 81.5484 165.687 81.0839 165.834L69.1742 169.546C68.7183 169.684 68.4344 169.987 68.3226 170.454C63.6516 189.894 58.929 209.312 54.1548 228.708C51.858 238.013 69.4064 255.675 76.1032 262.618C88.6064 275.608 100.968 288.715 113.677 301.523C114.03 301.869 114.443 301.973 114.916 301.834C120.267 300.286 124.929 296.955 128.903 291.842C132.194 287.624 132.219 284.873 128.774 280.578C125.127 276.001 121.411 271.494 117.626 267.056C118.262 266.13 118.452 265.364 118.194 264.759C119.363 255.13 120.555 245.522 121.768 235.937C123.6 221.519 128.361 207.374 130.826 192.827L132.658 187.493C131.032 199.302 128.594 210.904 125.342 222.298C124.181 226.355 123.402 230.331 123.006 234.224C121.923 244.878 119.987 255.428 119.097 266.082C119.062 266.55 119.187 266.965 119.471 267.328L131.961 283.134C132.245 283.489 132.421 283.896 132.49 284.354C132.783 286.162 132.542 287.845 131.768 289.402C131.587 289.766 131.587 290.133 131.768 290.505C132.705 292.487 134.039 293.559 135.768 293.724C135.647 293.853 135.523 293.983 135.394 294.113L135.187 296.176C135.058 296.211 134.933 296.246 134.813 296.28C133.944 294.576 132.731 293.161 131.174 292.037C130.821 291.777 130.482 291.79 130.155 292.076L120.374 300.64C120.546 300.71 120.499 300.93 120.232 301.302C115.57 301.363 113.557 303.106 114.194 306.532L113.006 306.571L113.419 303.456C113.471 303.05 113.359 302.695 113.084 302.392C111.501 300.671 109.892 298.975 108.258 297.305C104 292.945 97.9484 289.882 92.9419 286.379L92.4774 286.08C92.1419 285.873 91.8623 285.937 91.6387 286.275L91.2774 286.82C91.9871 283.329 91.9355 280.747 89.3419 277.944C81.4882 269.431 73.5957 260.969 65.6645 252.56C57.7161 244.125 51.1226 236.3 54.0258 224.426C58.6107 205.748 63.1742 187.065 67.7161 168.378C67.8193 167.945 67.7333 167.556 67.458 167.21C66.9333 166.544 66.1247 165.999 65.0322 165.575C65.6172 165.48 65.871 165.337 65.7935 165.147C68.9935 165.756 80.0129 166.963 81.871 163.615C82.4301 162.612 82.7054 161.266 82.6968 159.579Z" fill="#020202" fill-opacity="0.996"/>
<path d="M124.864 169.935C126.009 170.203 126.542 170.926 126.464 172.102C126.413 172.907 126.107 173.59 125.548 174.153C125.247 174.464 124.903 174.525 124.516 174.334C120.507 172.405 117.29 169.589 114.864 165.886C114.78 165.773 114.742 165.632 114.757 165.491C114.772 165.351 114.84 165.221 114.947 165.129C115.053 165.037 115.19 164.989 115.331 164.994C115.471 165 115.604 165.059 115.703 165.16C118.344 167.53 121.398 169.122 124.864 169.935Z" fill="#F5C6AF"/>
<path d="M97.7161 190.517C96.5118 189.669 95.7075 189.392 95.3032 189.686C94.8387 184.66 92.9462 180.875 89.6258 178.331C89.588 178.31 89.5612 178.275 89.5514 178.235C89.5415 178.194 89.5495 178.151 89.5734 178.115C89.5974 178.079 89.6354 178.053 89.6791 178.042C89.7228 178.032 89.7686 178.038 89.8064 178.059C92.4731 179.339 95.0624 180.845 97.5742 182.575C97.7319 182.681 97.8598 182.827 97.9457 182.997C98.0315 183.167 98.0724 183.357 98.0645 183.548L97.7161 190.517Z" fill="#020202" fill-opacity="0.996"/>
<path d="M95.3032 189.686C95.7075 189.392 96.5118 189.669 97.7161 190.517C98.2322 198.602 96.6322 208.036 96.3096 214.343C95.9397 221.48 95.458 228.635 94.8645 235.807C94.8301 236.231 94.7397 236.239 94.5935 235.833C94.301 235.011 93.8881 234.449 93.3548 234.146C94.1806 227.489 94.2193 220.974 94.8903 214.083C95.3634 209.23 95.4795 204.324 95.2387 199.367C95.2339 199.278 95.1989 199.192 95.1397 199.125C95.0804 199.057 95.0005 199.012 94.9137 198.996C94.8269 198.981 94.7385 198.997 94.6636 199.041C94.5888 199.085 94.5321 199.154 94.5032 199.237C91.3419 207.296 86.9161 219.157 87.4838 227.917C87.5092 228.341 87.6525 228.746 87.8967 229.085L92.0774 235.132C99.7763 244.441 107.591 253.685 115.523 262.864C116.052 263.474 116.774 265.498 118.194 264.759C118.452 265.364 118.262 266.13 117.626 267.056C101.523 248.256 91.5656 236.33 87.7548 231.278C83.0322 225.023 92.7613 197.81 95.3032 189.686ZM95.729 191.918C95.329 192.671 94.3613 196.395 94.2838 197.122C94.2586 197.392 94.3357 197.662 94.4995 197.879C94.6633 198.096 94.9016 198.243 95.1666 198.291C95.4316 198.339 95.7034 198.284 95.9275 198.136C96.1515 197.989 96.3111 197.761 96.3742 197.498C96.7699 195.785 96.8989 193.999 96.7613 192.139C96.756 192.02 96.7118 191.906 96.6353 191.816C96.5588 191.725 96.4541 191.663 96.3373 191.638C96.2205 191.613 96.0979 191.627 95.9881 191.677C95.8783 191.728 95.7873 191.813 95.729 191.918Z" fill="#55555E"/>
<path d="M94.2839 197.122C94.3613 196.395 95.329 192.671 95.729 191.918C95.7873 191.813 95.8783 191.728 95.9881 191.677C96.0979 191.627 96.2205 191.613 96.3373 191.638C96.4542 191.663 96.5588 191.725 96.6353 191.816C96.7118 191.906 96.7561 192.02 96.7613 192.139C96.8989 193.999 96.7699 195.786 96.3742 197.498C96.3112 197.761 96.1516 197.989 95.9275 198.136C95.7035 198.284 95.4316 198.339 95.1666 198.291C94.9017 198.243 94.6633 198.096 94.4995 197.879C94.3357 197.662 94.2587 197.392 94.2839 197.122Z" fill="#D9D9E6"/>
<path d="M92.9419 286.379C92.8473 286.431 92.757 286.491 92.671 286.56C92.5425 286.661 92.4385 286.789 92.367 286.935C92.2954 287.081 92.2582 287.242 92.2581 287.404V306.234C92.2574 306.442 92.3167 306.646 92.4289 306.821C92.5411 306.996 92.7014 307.135 92.8903 307.22C96.0516 308.647 111.045 309.621 113.006 306.571L114.194 306.532C113.841 307.89 112.753 308.665 110.929 308.855C110.761 308.874 110.607 308.955 110.495 309.082C110.383 309.209 110.322 309.373 110.323 309.543V316.485C110.323 316.918 110.473 317.286 110.774 317.589L111.355 318.16C111.69 318.497 111.871 318.904 111.897 319.379C112.232 324.557 113.806 328.736 109.806 333.33C109.411 333.581 109.204 333.801 109.187 333.992L95.2516 340H81.871L80.8903 339.014L81.6387 338.053C83.5484 338.988 85.3678 339.109 87.0968 338.417C87.4839 338.261 87.8753 338.235 88.271 338.339C88.5893 338.425 88.9678 338.417 89.4065 338.313C93.1484 339.961 112.529 333.265 111.342 327.321C110.723 324.233 110.538 321.754 110.787 319.885C110.797 319.814 110.786 319.74 110.754 319.675C110.723 319.61 110.673 319.556 110.61 319.519C110.548 319.483 110.476 319.466 110.404 319.472C110.332 319.477 110.263 319.503 110.206 319.548L107.445 321.598C107.067 321.875 106.649 321.983 106.194 321.923C101.148 321.313 99.9742 316.914 93.8968 317.018C93.5658 317.022 93.2406 317.105 92.9478 317.26C92.6551 317.416 92.4033 317.639 92.213 317.911C92.0228 318.184 91.8996 318.498 91.8536 318.827C91.8076 319.157 91.8401 319.493 91.9484 319.808C93.8065 325.193 92.5161 328.321 91.5355 333.563C91.506 333.715 91.5155 333.871 91.5629 334.018C91.6103 334.165 91.6941 334.297 91.8065 334.403C91.9188 334.508 92.0559 334.582 92.205 334.619C92.354 334.657 92.5099 334.655 92.6581 334.614C98.4731 333.109 103.677 330.406 108.271 326.504C108.426 326.383 108.572 326.391 108.71 326.53C108.787 326.608 108.865 326.685 108.942 326.763C108.999 326.821 109.043 326.89 109.071 326.966C109.099 327.042 109.112 327.124 109.107 327.205C109.102 327.287 109.08 327.367 109.043 327.441C109.006 327.515 108.954 327.58 108.89 327.633C103.497 332.114 97.4151 335.168 90.6452 336.795C89.6645 336.483 89.0194 336.574 88.7097 337.067C87.2645 337.586 86.2194 337.227 85.5742 335.99C85.4722 335.793 85.3318 335.618 85.1612 335.475C84.9907 335.332 84.7933 335.225 84.5807 335.16C84.0301 334.986 83.5914 335.185 83.2645 335.756C83.2559 335.618 83.2473 335.488 83.2387 335.367C83.1957 335.012 82.9936 334.826 82.6323 334.809C82.5118 334.809 82.3871 334.809 82.2581 334.809C82.1696 334.808 82.082 334.832 82.0006 334.879C81.9191 334.927 81.8455 334.997 81.7841 335.085C81.7226 335.174 81.6747 335.279 81.643 335.394C81.6114 335.509 81.5968 335.633 81.6 335.756C81.6086 335.973 81.8409 336.137 82.2968 336.25C80.8258 336.345 80.2839 336.704 80.671 337.327L78.929 337.872C74.5677 332.914 77.1613 327.516 82.3097 324.765C86.7742 322.377 89.6 318.017 93.8839 315.097C94.2022 314.422 94.5075 314.297 94.8 314.721C94.929 316.485 96.5161 315.914 97.5097 316.239C100.013 317.035 102.232 318.354 104.168 320.197C104.486 320.5 104.865 320.655 105.303 320.664C110.245 320.69 109.097 313.28 109.019 310.114C109.002 309.655 108.766 309.443 108.31 309.478C106.49 309.595 95.5097 309.309 95.0839 310.14C94.4817 310.226 94.3828 310.148 94.7871 309.906L91.7032 307.765C91.2989 307.488 91.0968 307.103 91.0968 306.61L91.2774 286.82L91.6387 286.275C91.8624 285.937 92.1419 285.872 92.4774 286.08L92.9419 286.379ZM91.2903 321.144V320.521C91.2909 320.367 91.2445 320.217 91.1574 320.09C91.0703 319.964 90.9467 319.867 90.8032 319.813C90.6598 319.76 90.5034 319.751 90.3551 319.79C90.2069 319.828 90.0739 319.911 89.9742 320.028C87.385 323.013 84.4172 325.366 81.071 327.088C78.8774 328.204 78.2194 330.008 79.1613 332.214C79.3936 332.75 79.6688 332.776 79.9871 332.292L80.2065 331.941C80.2361 331.893 80.276 331.853 80.3233 331.823C80.3707 331.792 80.4245 331.773 80.4809 331.765C80.5373 331.758 80.5951 331.763 80.6502 331.78C80.7052 331.797 80.7564 331.825 80.8 331.863C83.2258 334.018 86.0258 334.874 89.2 334.433C89.3996 334.406 89.5874 334.322 89.7408 334.191C89.8942 334.06 90.0066 333.887 90.0645 333.693C90.8387 331.227 93.9871 323.623 91.7161 321.975C91.584 321.879 91.4764 321.753 91.4024 321.609C91.3284 321.464 91.29 321.305 91.2903 321.144ZM79.3677 336.782C80.4 335.423 80.3871 334.351 79.329 333.563C79.0194 333.33 78.8387 333.403 78.7871 333.784L78.4387 336.405C78.2667 337.694 78.5764 337.82 79.3677 336.782Z" fill="#55555E"/>
<path d="M92.9419 286.379C97.9484 289.882 104 292.945 108.258 297.305C109.892 298.975 111.501 300.671 113.084 302.392C113.359 302.695 113.471 303.05 113.419 303.456L113.006 306.571C111.045 309.621 96.0516 308.647 92.8903 307.22C92.7014 307.135 92.5411 306.996 92.4289 306.821C92.3167 306.646 92.2574 306.442 92.2581 306.234V287.404C92.2582 287.242 92.2954 287.081 92.367 286.935C92.4385 286.789 92.5425 286.661 92.671 286.56C92.757 286.491 92.8473 286.431 92.9419 286.379Z" fill="#D9D9E6"/>
<path d="M134.813 296.28C135.523 301.017 129.239 304.235 125.587 304.871C125.123 304.949 124.718 304.823 124.374 304.495L120.374 300.64L130.155 292.076C130.482 291.79 130.821 291.777 131.174 292.037C132.731 293.161 133.944 294.576 134.813 296.28Z" fill="#F5C6AF"/>
<path d="M135.768 293.724L143.574 298.525C143.514 299.165 144.052 299.793 145.187 300.407C140.559 305.087 137.204 309.954 135.123 315.006C134.254 317.117 133.234 318.627 132.065 319.535C132.02 319.57 131.984 319.615 131.958 319.665C131.933 319.716 131.918 319.772 131.916 319.83C131.913 319.888 131.923 319.945 131.944 320C131.965 320.054 131.998 320.104 132.039 320.145L132.374 320.495C132.615 320.729 132.667 321.002 132.529 321.313C131.557 323.51 130.069 325.219 128.065 326.439C126.968 325.349 126.155 326.867 126.297 327.827C122.443 329.601 119.751 332.283 118.219 335.873C118.022 336.323 118.116 336.704 118.503 337.015C120.155 338.313 122.404 338.525 125.252 337.651C125.062 337.963 125.178 338.335 125.6 338.767L123.445 340H121.187C118.486 338.754 116.095 336.959 114.013 334.615C113.729 334.658 113.449 334.701 113.174 334.744L114.039 334.355C114.409 334.191 114.632 333.914 114.71 333.524C116.619 324.57 120.852 318.082 120.748 308.777C120.74 308.301 120.903 307.895 121.239 307.557L123.252 305.533C123.3 305.485 123.338 305.428 123.362 305.364C123.386 305.3 123.396 305.232 123.391 305.164C123.386 305.096 123.367 305.03 123.334 304.97C123.301 304.911 123.255 304.859 123.2 304.819C121.91 303.885 120.92 302.712 120.232 301.302C120.499 300.93 120.546 300.71 120.374 300.64L124.374 304.495C124.718 304.823 125.123 304.949 125.587 304.871C129.239 304.235 135.523 301.017 134.813 296.28C134.933 296.246 135.058 296.211 135.187 296.176C135.273 297.336 135.578 298.119 136.103 298.525C135.088 300.792 133.57 302.587 131.548 303.911L123.406 306.701C122.985 306.844 122.618 307.117 122.357 307.482C122.096 307.847 121.953 308.286 121.948 308.738C121.923 317.809 118.361 324.376 116.077 332.811C116.013 333.046 116.035 333.298 116.14 333.518C116.246 333.739 116.427 333.913 116.65 334.01C116.874 334.106 117.124 334.118 117.356 334.043C117.587 333.969 117.784 333.812 117.91 333.602C119.084 331.656 120.219 330.28 122.168 328.814C128.43 324.107 133.037 318.047 135.987 310.633C136.288 309.88 136.034 309.504 135.226 309.504H134.206C133.613 309.504 133.406 309.218 133.587 308.647C134.026 307.289 134.077 306.182 133.742 305.325C134.68 304.901 135.037 305.507 134.813 307.142C134.782 307.382 134.831 307.626 134.953 307.836C135.074 308.046 135.261 308.209 135.483 308.3C135.705 308.391 135.95 308.404 136.18 308.338C136.409 308.271 136.609 308.129 136.748 307.934C138.503 305.537 140.43 303.279 142.529 301.16C142.839 300.848 142.955 300.476 142.877 300.044C142.611 298.625 141.548 297.993 139.69 298.149C139.802 297.301 139.591 296.717 139.058 296.397C138.628 296.146 138.284 296.233 138.026 296.657L137.716 297.176C137.449 297.634 137.295 297.599 137.252 297.072C137.131 295.575 136.512 294.589 135.394 294.113C135.523 293.983 135.647 293.853 135.768 293.724Z" fill="#55555E"/>
<path d="M135.394 294.113C136.512 294.589 137.131 295.575 137.252 297.072C137.295 297.599 137.45 297.634 137.716 297.176L138.026 296.656C138.284 296.233 138.628 296.146 139.058 296.397C139.591 296.717 139.802 297.301 139.69 298.149C139.733 298.616 139.66 298.962 139.471 299.187C139.204 299.516 138.899 299.55 138.555 299.291C137.824 298.746 137.006 298.491 136.103 298.525C135.579 298.119 135.273 297.336 135.187 296.176L135.394 294.113Z" fill="#D9D9E6"/>
<path d="M143.574 298.525C150.568 300.459 148.297 308.518 145.523 312.774C140.529 320.418 134.865 327.633 129.781 335.263C128.671 336.916 127.277 338.084 125.6 338.767C125.179 338.335 125.062 337.963 125.252 337.651C126.981 336.838 128.585 335.268 130.065 332.94C133.024 328.295 137.105 322.49 142.31 315.525C145.161 311.723 150.013 304.248 145.187 300.407C144.052 299.793 143.514 299.165 143.574 298.525Z" fill="#020202" fill-opacity="0.996"/>
<path d="M145.187 300.407C150.013 304.248 145.161 311.723 142.31 315.525C137.105 322.49 133.024 328.295 130.065 332.94C128.585 335.268 126.981 336.838 125.252 337.651C122.404 338.525 120.155 338.313 118.503 337.015C118.116 336.704 118.022 336.323 118.219 335.873C119.751 332.283 122.443 329.601 126.297 327.827C126.804 327.698 127.394 327.235 128.065 326.439C130.069 325.219 131.557 323.51 132.529 321.313C132.667 321.002 132.615 320.729 132.374 320.495L132.039 320.145C131.998 320.104 131.965 320.054 131.944 320C131.923 319.945 131.913 319.888 131.916 319.83C131.918 319.772 131.933 319.716 131.958 319.665C131.984 319.615 132.02 319.57 132.065 319.535C133.234 318.627 134.254 317.117 135.123 315.006C137.204 309.954 140.559 305.087 145.187 300.407Z" fill="white"/>
<path d="M120.232 301.302C120.92 302.712 121.91 303.885 123.2 304.819C123.255 304.859 123.301 304.911 123.334 304.97C123.367 305.03 123.386 305.096 123.391 305.164C123.396 305.232 123.386 305.3 123.362 305.364C123.338 305.428 123.3 305.485 123.252 305.533L121.239 307.557C120.903 307.895 120.74 308.301 120.748 308.777C120.852 318.082 116.619 324.57 114.71 333.524C114.632 333.914 114.409 334.191 114.039 334.355L113.174 334.744C112.193 334.64 111.071 334.169 109.806 333.33C113.806 328.736 112.232 324.557 111.897 319.379C111.871 318.904 111.69 318.497 111.355 318.16L110.774 317.589C110.473 317.286 110.323 316.918 110.323 316.485V309.543C110.321 309.373 110.383 309.209 110.495 309.082C110.607 308.955 110.761 308.874 110.929 308.855C112.753 308.665 113.841 307.89 114.193 306.532C113.557 303.106 115.57 301.363 120.232 301.302Z" fill="white"/>
<path d="M131.548 303.911C131.695 304.992 132.426 305.464 133.742 305.325C134.077 306.182 134.026 307.289 133.587 308.647C133.406 309.218 133.613 309.504 134.206 309.504H135.226C136.034 309.504 136.288 309.88 135.987 310.633C133.037 318.047 128.43 324.107 122.168 328.814C120.219 330.28 119.084 331.656 117.91 333.602C117.784 333.812 117.587 333.968 117.356 334.043C117.124 334.118 116.874 334.106 116.65 334.01C116.427 333.913 116.246 333.739 116.14 333.518C116.035 333.298 116.013 333.046 116.077 332.811C118.361 324.376 121.923 317.809 121.948 308.738C121.953 308.286 122.096 307.847 122.357 307.482C122.618 307.117 122.985 306.844 123.406 306.701L131.548 303.911Z" fill="white"/>
<path d="M94.8 314.721C95.2216 313.284 95.3162 311.758 95.0839 310.14C95.5097 309.309 106.49 309.595 108.31 309.478C108.766 309.443 109.002 309.655 109.019 310.114C109.097 313.28 110.245 320.69 105.303 320.664C104.865 320.655 104.486 320.5 104.168 320.197C102.232 318.354 100.013 317.035 97.5097 316.239C96.5162 315.915 94.9291 316.485 94.8 314.721Z" fill="#F5C6AF"/>
<path d="M94.7871 309.906C94.3828 310.148 94.4818 310.226 95.0839 310.14C95.3162 311.758 95.2215 313.284 94.8 314.721C94.5076 314.297 94.2022 314.422 93.8839 315.097L94.7871 309.906Z" fill="#020202" fill-opacity="0.996"/>
<path d="M89.4065 338.313C89.5269 337.526 89.9398 337.02 90.6452 336.795C97.4151 335.168 103.497 332.114 108.89 327.633C108.954 327.58 109.006 327.515 109.043 327.441C109.08 327.367 109.102 327.287 109.107 327.205C109.112 327.124 109.099 327.042 109.071 326.966C109.043 326.89 108.999 326.821 108.942 326.763C108.865 326.686 108.787 326.608 108.71 326.53C108.572 326.391 108.426 326.383 108.271 326.504C103.677 330.406 98.4732 333.109 92.6581 334.615C92.5099 334.655 92.354 334.657 92.205 334.62C92.056 334.582 91.9188 334.508 91.8065 334.403C91.6941 334.297 91.6103 334.165 91.5629 334.018C91.5155 333.871 91.5061 333.715 91.5355 333.563C92.5162 328.321 93.8065 325.193 91.9484 319.808C91.8401 319.493 91.8076 319.157 91.8536 318.827C91.8996 318.498 92.0228 318.184 92.2131 317.911C92.4033 317.639 92.6552 317.416 92.9479 317.26C93.2406 317.105 93.5658 317.022 93.8968 317.018C99.9742 316.914 101.148 321.313 106.194 321.923C106.65 321.983 107.067 321.875 107.445 321.598L110.206 319.548C110.263 319.503 110.332 319.477 110.404 319.472C110.476 319.466 110.548 319.483 110.61 319.519C110.673 319.556 110.723 319.61 110.754 319.675C110.786 319.74 110.797 319.814 110.787 319.886C110.538 321.754 110.723 324.233 111.342 327.321C112.529 333.265 93.1484 339.961 89.4065 338.313Z" fill="white"/>
<path d="M128.064 326.439C127.394 327.235 126.804 327.698 126.297 327.828C126.155 326.867 126.968 325.349 128.064 326.439Z" fill="#D9D9E6"/>
<path d="M109.806 333.33C111.071 334.169 112.194 334.64 113.174 334.744C113.449 334.701 113.729 334.658 114.013 334.615C112.783 335.549 111.174 335.341 109.187 333.992C109.204 333.801 109.411 333.581 109.806 333.33Z" fill="#020202" fill-opacity="0.996"/>
<path d="M90.6452 336.795C89.9398 337.02 89.5269 337.526 89.4065 338.313C88.9678 338.417 88.5893 338.425 88.271 338.339C87.8753 338.235 87.4839 338.261 87.0968 338.417C85.3678 339.109 83.5484 338.988 81.6388 338.053L80.671 337.327C80.2839 336.704 80.8259 336.345 82.2968 336.25L83.2646 335.756C83.5914 335.185 84.0302 334.986 84.5807 335.16C84.7933 335.225 84.9907 335.332 85.1613 335.475C85.3319 335.618 85.4722 335.793 85.5742 335.99C86.2194 337.227 87.2646 337.586 88.7097 337.067C89.0194 336.574 89.6646 336.483 90.6452 336.795Z" fill="#D9D9E6"/>
<path d="M80.671 337.327L81.6388 338.053L80.8904 339.014L78.9291 337.872L80.671 337.327Z" fill="#353743" fill-opacity="0.992"/>
</g>
<defs>
<clipPath id="clip0_93_134">
<rect width="160" height="340" fill="white"/>
</clipPath>
</defs>
</svg>
