<svg width="112" height="97" viewBox="0 0 112 97" fill="none" xmlns="http://www.w3.org/2000/svg">
<path d="M68.26 5.87382C38.34 6.40623 10.93 6.44641 9.12001 43.9762C8.62001 54.303 9.87001 73.0176 15.96 81.8878C16.7533 83.0396 17.39 84.2786 17.87 85.6046" stroke="#489782" stroke-width="2"/>
<path d="M94.14 12.9056C98.3 18.5847 100.31 24.4613 100.17 30.5354C99.9567 40.1121 98.4867 50.0705 95.76 60.4106C89.39 84.5498 72.47 85.6548 51.14 90.9889" stroke="#489782" stroke-width="2"/>
<path d="M65.69 48.8483C65.6913 48.907 65.6754 48.9648 65.6444 49.0146C65.6134 49.0644 65.5686 49.104 65.5154 49.1285C65.4623 49.1531 65.4032 49.1615 65.3454 49.1528C65.2876 49.144 65.2336 49.1185 65.19 49.0793L30.25 17.1448C30.2071 17.1062 30.154 17.0809 30.0971 17.0718C30.0402 17.0627 29.9819 17.0703 29.9292 17.0936C29.8764 17.1169 29.8315 17.155 29.7997 17.2032C29.768 17.2515 29.7507 17.3079 29.75 17.3658V76.202C29.75 76.282 29.7816 76.3586 29.8379 76.4151C29.8941 76.4717 29.9704 76.5034 30.05 76.5034H41.45C41.5296 76.5034 41.6059 76.4717 41.6621 76.4151C41.7184 76.3586 41.75 76.282 41.75 76.202V44.3379C41.7507 44.28 41.768 44.2235 41.7997 44.1753C41.8315 44.127 41.8764 44.0889 41.9292 44.0656C41.9819 44.0423 42.0402 44.0348 42.0971 44.0438C42.154 44.0529 42.2071 44.0783 42.25 44.1169L77 75.981C77.0429 76.0196 77.096 76.045 77.1529 76.0541C77.2098 76.0631 77.2681 76.0556 77.3208 76.0323C77.3736 76.009 77.4185 75.9709 77.4503 75.9226C77.482 75.8744 77.4993 75.8179 77.5 75.76V17.0343C77.5 16.9544 77.4684 16.8777 77.4121 16.8212C77.3559 16.7647 77.2796 16.733 77.2 16.733H66.08C66.0004 16.733 65.9241 16.7647 65.8679 16.8212C65.8116 16.8777 65.78 16.9544 65.78 17.0343L65.69 48.8483Z" stroke="#83B4D5" stroke-width="2"/>
<path d="M68.2601 5.87382C38.34 6.40623 10.93 6.44641 9.12005 43.9762C8.62005 54.303 9.87005 73.0176 15.96 81.8878C16.7534 83.0397 17.39 84.2786 17.87 85.6046C9.34005 81.8978 6.62005 75.4888 5.88005 66.0863C5.00005 54.9425 5.88005 43.9863 8.52005 33.2175C16.49 0.700409 40.4701 -0.545228 68.2601 5.87382Z" fill="#89C459"/>
<path d="M68.26 5.87382C74.8667 6.30912 80.28 7.08262 84.5 8.19432C87.6 9.01135 90.8133 10.5818 94.14 12.9056C98.3 18.5847 100.31 24.4613 100.17 30.5354C99.9567 40.1121 98.4867 50.0705 95.76 60.4106C89.39 84.5498 72.47 85.6548 51.14 90.989C45.98 91.4309 41.1833 91.5415 36.75 91.3204C30.0967 90.9923 23.8033 89.087 17.87 85.6046C17.39 84.2786 16.7533 83.0396 15.96 81.8878C9.87001 73.0176 8.62001 54.303 9.12001 43.9762C10.93 6.44641 38.34 6.40623 68.26 5.87382ZM65.69 48.8483C65.6913 48.907 65.6754 48.9648 65.6444 49.0146C65.6134 49.0644 65.5686 49.104 65.5155 49.1285C65.4623 49.1531 65.4032 49.1615 65.3454 49.1528C65.2876 49.144 65.2336 49.1185 65.19 49.0793L30.25 17.1448C30.2071 17.1062 30.154 17.0809 30.0971 17.0718C30.0402 17.0627 29.9819 17.0703 29.9292 17.0936C29.8764 17.1169 29.8315 17.155 29.7997 17.2032C29.768 17.2515 29.7507 17.3079 29.75 17.3658V76.202C29.75 76.282 29.7816 76.3586 29.8379 76.4151C29.8941 76.4717 29.9704 76.5034 30.05 76.5034H41.45C41.5296 76.5034 41.6059 76.4717 41.6621 76.4151C41.7184 76.3586 41.75 76.282 41.75 76.202V44.3379C41.7507 44.28 41.768 44.2235 41.7997 44.1753C41.8315 44.127 41.8764 44.0889 41.9292 44.0656C41.9819 44.0423 42.0402 44.0348 42.0971 44.0438C42.154 44.0529 42.2071 44.0783 42.25 44.1169L77 75.981C77.043 76.0196 77.096 76.045 77.1529 76.0541C77.2098 76.0631 77.2681 76.0556 77.3209 76.0323C77.3736 76.009 77.4185 75.9709 77.4503 75.9226C77.4821 75.8744 77.4993 75.8179 77.5 75.76V17.0343C77.5 16.9544 77.4684 16.8777 77.4121 16.8212C77.3559 16.7647 77.2796 16.733 77.2 16.733H66.08C66.0005 16.733 65.9241 16.7647 65.8679 16.8212C65.8116 16.8777 65.78 16.9544 65.78 17.0343L65.69 48.8483Z" fill="#0669AB"/>
<path d="M94.14 12.9056C117.41 22.5794 100.45 60.2699 92.31 73.55C83.19 88.4274 68.01 92.8574 51.14 90.9889C72.47 85.6548 89.39 84.5498 95.76 60.4106C98.4867 50.0705 99.9567 40.1121 100.17 30.5354C100.31 24.4613 98.3 18.5847 94.14 12.9056Z" fill="#89C459"/>
<path d="M65.69 48.8483L65.78 17.0343C65.78 16.9544 65.8116 16.8777 65.8679 16.8212C65.9241 16.7647 66.0004 16.733 66.08 16.733H77.2C77.2796 16.733 77.3559 16.7647 77.4121 16.8212C77.4684 16.8777 77.5 16.9544 77.5 17.0343V75.76C77.4993 75.8179 77.482 75.8744 77.4503 75.9226C77.4185 75.9709 77.3736 76.009 77.3208 76.0323C77.2681 76.0556 77.2098 76.0631 77.1529 76.0541C77.096 76.045 77.0429 76.0196 77 75.981L42.25 44.1169C42.2071 44.0783 42.154 44.0529 42.0971 44.0438C42.0402 44.0348 41.9819 44.0423 41.9292 44.0656C41.8764 44.0889 41.8315 44.127 41.7997 44.1753C41.768 44.2235 41.7507 44.28 41.75 44.3379V76.202C41.75 76.282 41.7184 76.3586 41.6621 76.4151C41.6059 76.4717 41.5296 76.5034 41.45 76.5034H30.05C29.9704 76.5034 29.8941 76.4717 29.8379 76.4151C29.7816 76.3586 29.75 76.282 29.75 76.202V17.3658C29.7507 17.3079 29.768 17.2515 29.7997 17.2032C29.8315 17.155 29.8764 17.1169 29.9292 17.0936C29.9819 17.0703 30.0402 17.0627 30.0971 17.0718C30.154 17.0809 30.2071 17.1062 30.25 17.1448L65.19 49.0793C65.2336 49.1185 65.2876 49.144 65.3454 49.1528C65.4032 49.1615 65.4623 49.1531 65.5154 49.1285C65.5686 49.104 65.6134 49.0644 65.6444 49.0146C65.6754 48.9648 65.6913 48.907 65.69 48.8483Z" fill="white"/>
</svg>
