<svg width="23" height="21" viewBox="0 0 23 21" fill="none" xmlns="http://www.w3.org/2000/svg">
<path d="M12.2575 21C12.0402 21 11.8592 20.9335 11.7145 20.8006C11.5697 20.6677 11.4974 20.5015 11.4974 20.3019C11.4974 20.1167 11.5697 19.9596 11.7145 19.8304C11.8592 19.7013 12.0402 19.6367 12.2575 19.6367H21.0833C21.1884 19.6367 21.2846 19.5968 21.3722 19.5171C21.4597 19.4374 21.5035 19.3497 21.5035 19.254V1.74602C21.5035 1.65034 21.4597 1.56264 21.3722 1.48291C21.2846 1.40317 21.1884 1.36329 21.0833 1.36329H12.2575C12.0402 1.36329 11.8592 1.29684 11.7145 1.16392C11.5697 1.03099 11.4974 0.864752 11.4974 0.665214C11.4974 0.480042 11.5697 0.322886 11.7145 0.193744C11.8592 0.0645818 12.0402 0 12.2575 0H21.0833C21.5989 0 22.0473 0.173584 22.4283 0.520754C22.8094 0.867902 23 1.27633 23 1.74602V19.254C23 19.7237 22.8094 20.1321 22.4283 20.4793C22.0473 20.8264 21.5989 21 21.0833 21H12.2575ZM12.5647 11.1817H0.760097C0.542832 11.1817 0.361839 11.1152 0.217117 10.9823C0.0723721 10.8493 0 10.6831 0 10.4836C0 10.2984 0.0723721 10.1412 0.217117 10.0121C0.361839 9.88294 0.542832 9.81837 0.760097 9.81837H12.5227L9.75098 7.29342C9.60162 7.16133 9.52825 7.00201 9.53089 6.81545C9.53351 6.62889 9.61534 6.46485 9.77638 6.32333C9.92164 6.1922 10.0972 6.12863 10.3031 6.13261C10.509 6.13659 10.6887 6.2011 10.8421 6.32616L14.769 9.90341C14.9545 10.0803 15.0472 10.2886 15.0472 10.5285C15.0472 10.7683 14.9548 10.9701 14.7701 11.1338L10.8711 14.6857C10.7261 14.8156 10.5537 14.8791 10.3541 14.8761C10.1545 14.8731 9.97582 14.802 9.81815 14.6629C9.66601 14.5306 9.58819 14.3699 9.58469 14.181C9.5812 13.992 9.65705 13.8249 9.81221 13.6795L12.5647 11.1817Z" fill="#fff"/>
</svg>
