<svg width="40" height="40" viewBox="0 0 40 40" fill="none" xmlns="http://www.w3.org/2000/svg">
<g clip-path="url(#clip0_418_436)">
<path d="M23.988 4.04004C13.0352 4.23879 3.00114 4.25379 2.33855 18.2638C2.15551 22.1188 2.6131 29.105 4.84248 32.4163C5.1329 32.8463 5.36596 33.3088 5.54168 33.8038" stroke="#489782" stroke-width="2"/>
<path d="M33.4619 6.66504C34.9848 8.78504 35.7206 10.9788 35.6693 13.2463C35.5912 16.8213 35.0531 20.5388 34.0549 24.3988C31.7231 33.41 25.5291 33.8225 17.7208 35.8138" stroke="#489782" stroke-width="2"/>
<path d="M23.0472 20.0825C23.0477 20.1044 23.0419 20.126 23.0305 20.1446C23.0192 20.1632 23.0028 20.178 22.9833 20.1871C22.9639 20.1963 22.9423 20.1994 22.9211 20.1962C22.8999 20.1929 22.8801 20.1834 22.8642 20.1688L10.0737 8.2475C10.0579 8.2331 10.0385 8.22363 10.0177 8.22024C9.99685 8.21685 9.97551 8.21967 9.95621 8.22837C9.93691 8.23707 9.92046 8.25128 9.90883 8.26931C9.8972 8.28733 9.89088 8.3084 9.89062 8.33V30.2937C9.89062 30.3236 9.9022 30.3522 9.92279 30.3733C9.94339 30.3944 9.97132 30.4062 10.0004 30.4062H14.1737C14.2028 30.4062 14.2307 30.3944 14.2513 30.3733C14.2719 30.3522 14.2835 30.3236 14.2835 30.2937V18.3987C14.2837 18.3771 14.2901 18.3561 14.3017 18.3381C14.3133 18.32 14.3298 18.3058 14.3491 18.2971C14.3684 18.2884 14.3897 18.2856 14.4105 18.289C14.4314 18.2924 14.4508 18.3018 14.4665 18.3162L27.1875 30.2113C27.2032 30.2257 27.2227 30.2351 27.2435 30.2385C27.2643 30.2419 27.2857 30.2391 27.305 30.2304C27.3243 30.2217 27.3407 30.2075 27.3523 30.1894C27.364 30.1714 27.3703 30.1504 27.3705 30.1288V8.20625C27.3705 8.17641 27.359 8.1478 27.3384 8.1267C27.3178 8.1056 27.2898 8.09375 27.2607 8.09375H23.19C23.1609 8.09375 23.1329 8.1056 23.1123 8.1267C23.0917 8.1478 23.0802 8.17641 23.0802 8.20625L23.0472 20.0825Z" stroke="#83B4D5" stroke-width="2"/>
<path d="M23.9881 4.04001C13.0352 4.23876 3.0012 4.25376 2.33861 18.2638C2.15558 22.1188 2.61317 29.105 4.84254 32.4163C5.13296 32.8463 5.36602 33.3088 5.54174 33.8038C2.41915 32.42 1.42343 30.0275 1.15254 26.5175C0.830399 22.3575 1.15254 18.2675 2.11897 14.2475C5.03656 2.10876 13.815 1.64376 23.9881 4.04001Z" fill="#89C459"/>
<path d="M23.988 4.04004C26.4065 4.20254 28.3882 4.49129 29.933 4.90629C31.0678 5.21129 32.2441 5.79754 33.4619 6.66504C34.9848 8.78504 35.7206 10.9788 35.6694 13.2463C35.5913 16.8213 35.0531 20.5388 34.055 24.3988C31.7231 33.41 25.5292 33.8225 17.7209 35.8138C15.8319 35.9788 14.076 36.02 12.4531 35.9375C10.0175 35.815 7.7137 35.1038 5.54168 33.8038C5.36596 33.3088 5.1329 32.8463 4.84248 32.4163C2.6131 29.105 2.15551 22.1188 2.33855 18.2638C3.00114 4.25379 13.0352 4.23879 23.988 4.04004ZM23.0472 20.0825C23.0477 20.1045 23.0419 20.126 23.0305 20.1446C23.0192 20.1632 23.0028 20.178 22.9833 20.1872C22.9639 20.1963 22.9422 20.1995 22.9211 20.1962C22.8999 20.1929 22.8801 20.1834 22.8642 20.1688L10.0736 8.24754C10.0579 8.23313 10.0385 8.22367 10.0177 8.22028C9.99683 8.21689 9.97549 8.21971 9.95619 8.22841C9.93688 8.23711 9.92043 8.25132 9.9088 8.26934C9.89717 8.28737 9.89086 8.30844 9.8906 8.33004V30.2938C9.8906 30.3236 9.90217 30.3522 9.92277 30.3733C9.94336 30.3944 9.9713 30.4063 10.0004 30.4063H14.1736C14.2028 30.4063 14.2307 30.3944 14.2513 30.3733C14.2719 30.3522 14.2835 30.3236 14.2835 30.2938V18.3988C14.2837 18.3772 14.29 18.3561 14.3017 18.3381C14.3133 18.3201 14.3297 18.3059 14.349 18.2972C14.3683 18.2885 14.3897 18.2856 14.4105 18.289C14.4313 18.2924 14.4508 18.3019 14.4665 18.3163L27.1875 30.2113C27.2032 30.2257 27.2226 30.2352 27.2435 30.2385C27.2643 30.2419 27.2856 30.2391 27.3049 30.2304C27.3242 30.2217 27.3407 30.2075 27.3523 30.1895C27.3639 30.1715 27.3703 30.1504 27.3705 30.1288V8.20629C27.3705 8.17645 27.3589 8.14784 27.3383 8.12674C27.3178 8.10564 27.2898 8.09379 27.2607 8.09379H23.19C23.1609 8.09379 23.1329 8.10564 23.1123 8.12674C23.0917 8.14784 23.0802 8.17645 23.0802 8.20629L23.0472 20.0825Z" fill="#0669AB"/>
<path d="M33.462 6.66504C41.9805 10.2763 35.7719 24.3463 32.7921 29.3038C29.4535 34.8575 23.8966 36.5113 17.7209 35.8138C25.5292 33.8225 31.7232 33.41 34.0551 24.3988C35.0532 20.5388 35.5913 16.8213 35.6694 13.2463C35.7207 10.9788 34.9849 8.78504 33.462 6.66504Z" fill="#89C459"/>
<path d="M23.0472 20.0825L23.0802 8.20625C23.0802 8.17641 23.0917 8.1478 23.1123 8.1267C23.1329 8.1056 23.1609 8.09375 23.19 8.09375H27.2607C27.2898 8.09375 27.3178 8.1056 27.3384 8.1267C27.359 8.1478 27.3705 8.17641 27.3705 8.20625V30.1288C27.3703 30.1504 27.364 30.1714 27.3523 30.1894C27.3407 30.2075 27.3243 30.2217 27.305 30.2304C27.2857 30.2391 27.2643 30.2419 27.2435 30.2385C27.2227 30.2351 27.2032 30.2257 27.1875 30.2113L14.4665 18.3162C14.4508 18.3018 14.4314 18.2924 14.4105 18.289C14.3897 18.2856 14.3684 18.2884 14.3491 18.2971C14.3298 18.3058 14.3133 18.32 14.3017 18.3381C14.2901 18.3561 14.2837 18.3771 14.2835 18.3987V30.2937C14.2835 30.3236 14.2719 30.3522 14.2513 30.3733C14.2307 30.3944 14.2028 30.4062 14.1737 30.4062H10.0004C9.97132 30.4062 9.94339 30.3944 9.92279 30.3733C9.9022 30.3522 9.89063 30.3236 9.89062 30.2937V8.33C9.89088 8.3084 9.8972 8.28733 9.90883 8.26931C9.92046 8.25128 9.93691 8.23707 9.95621 8.22837C9.97551 8.21967 9.99685 8.21685 10.0177 8.22024C10.0385 8.22363 10.0579 8.2331 10.0737 8.2475L22.8642 20.1688C22.8801 20.1834 22.8999 20.1929 22.9211 20.1962C22.9423 20.1994 22.9639 20.1963 22.9833 20.1871C23.0028 20.178 23.0192 20.1632 23.0305 20.1446C23.0419 20.126 23.0477 20.1044 23.0472 20.0825Z" fill="white"/>
</g>
<defs>
<clipPath id="clip0_418_436">
<rect width="40" height="40" fill="white"/>
</clipPath>
</defs>
</svg>
